<svg width="258" height="273" viewBox="0 0 258 273" fill="none" xmlns="http://www.w3.org/2000/svg">
<g clip-path="url(#clip0_142_241)">
<rect width="258" height="273" fill="url(#paint0_linear_142_241)"/>
<path d="M171.208 19.262C173.981 19.5431 176.741 21.1741 179.296 22.2439C180.438 19.5179 183.581 16.9872 186.38 15.751C188.425 14.8476 188.841 14.9798 190.998 15.3399C193.325 15.7283 192.617 14.2712 193.887 13.0732C196.987 10.1502 198.423 7.86233 203.034 7.44415C207.691 7.02187 209.844 8.94547 213.019 11.7859C214.955 13.5171 223.505 23.2298 224.142 22.1008C225.708 19.3246 233.767 16.2182 236.638 16.5805C238.89 16.8647 246.146 18.2757 247.315 20.5247C248.007 21.8541 250.38 21.8107 251.41 23.0067C252.385 24.14 254.452 26.4468 254.921 27.7506C255.8 30.1918 259.569 40.0172 261.45 37.3552C261.98 36.6041 265.484 36.0908 266.411 35.8348C268.359 35.2967 269.685 36.0735 271.457 36.8155C274.31 38.0095 276.079 40.1425 276.876 43.0855C278.094 47.581 276.208 50.6685 274.444 54.8806C273.229 57.7842 271.705 59.5492 269.961 62.0175C269.494 62.6783 266.911 66.376 266.225 66.5973C263.839 67.3672 265.237 71.662 264.208 74.1197C263.011 76.9776 261.435 80.1947 259.393 82.5323C256.762 85.5421 253.173 91.2198 248.537 91.084C242.143 90.8967 236.737 88.871 230.849 86.0239C228.98 85.12 226.209 80.0479 224.86 82.9508C224.144 84.4928 222.455 85.4718 221.751 86.9035C219.807 90.856 213.08 92.6751 208.956 91.9759C203.863 91.1122 198.199 89.944 195.19 85.081C194.005 83.1662 193.552 82.35 192.897 80.3219C192.425 78.8569 193.511 75.3976 192.331 75.8812C189.449 77.0624 186.328 79.2713 183.072 79.8466C177.801 80.778 175.08 77.0293 172.549 73.2182C171.491 71.6252 172.082 69.3483 171.253 67.6233C170.137 65.2987 173.131 61.1655 171.456 59.2202C170.049 57.5848 167.688 60.2665 166.747 61.0078C165.125 62.2854 161.724 60.7239 159.977 59.9927C151.957 56.6351 151.235 45.1785 158.579 40.4502C159.168 40.071 164.101 36.3835 163.943 36.2288C163.364 35.6587 160.333 36.8595 158.915 36.2663C155.349 34.7732 156.954 28.6079 158.554 25.9292C160.65 22.42 167.11 18.8466 171.208 19.262Z" fill="white" stroke="black" stroke-width="3" stroke-linecap="round"/>
<path d="M57.2241 130.026C54.8906 131.126 52.6042 129.934 50.1262 129.253C48.7168 134.383 44.1002 138.748 37.9458 137.057C34.4136 136.087 33.6656 134.307 30.781 132.92C28.3152 131.735 27.9305 136.981 27.4746 138.641C25.3672 146.31 19.0915 143.028 13.5535 141.506C11.33 140.895 9.07134 140.36 6.87164 139.67C4.82864 139.03 5.26142 137.491 3.96944 136.705C2.19332 135.624 2.03593 133.183 0.453303 131.464C-1.45667 129.389 -2.27805 121.917 -6.35543 123.77C-8.6838 124.828 -9.24754 127.312 -10.9432 129.2C-15.7594 134.562 -25.2391 137.538 -32.1641 135.636C-36.3111 134.496 -39.5005 133.811 -42.8699 131.083C-46.2111 128.378 -46.0067 125.583 -46.4808 120.551C-46.5948 119.34 -45.4037 113.212 -46.7907 112.66C-48.3566 112.036 -53.0606 112.943 -54.3241 111.705C-56.3944 109.676 -57.9067 108.473 -57.0564 105.378C-55.7936 100.782 -54.3708 86.5822 -50.9067 83.8984C-47.1901 81.019 -40.4328 77.8906 -35.674 80.0921C-33.8491 80.9364 -25.7298 85.998 -24.1953 83.1841C-22.8091 80.6421 -23.4353 77.1956 -21.2667 75.0058C-17.5948 71.298 -15.0715 67.8561 -9.56862 67.3786C-6.73485 67.1327 -4.10671 67.4108 -1.38647 68.2638C0.354053 68.8095 0.467731 70.631 1.97655 71.3561C4.11745 72.385 10.1632 82.0221 13.2659 77.6175C17.5875 71.4829 20.2205 69.1036 29.307 70.1924C34.1641 70.7744 41.5436 72.9565 44.283 77.4667C46.7738 81.5678 50.3714 84.4922 49.9131 89.6693C49.7079 91.9867 48.0435 97.9706 51.5821 96.4469C55.3291 94.8335 63.2268 100.937 65.6636 102.918C71.3873 107.572 71.0008 110.803 69.042 117.228C67.6541 121.78 61.6525 127.938 57.2241 130.026Z" fill="white" stroke="black" stroke-width="3" stroke-linecap="round"/>
</g>
<defs>
<linearGradient id="paint0_linear_142_241" x1="129" y1="0" x2="129" y2="273" gradientUnits="userSpaceOnUse">
<stop offset="0.0001" stop-color="#48AAFF"/>
</linearGradient>
<clipPath id="clip0_142_241">
<rect width="258" height="273" fill="white"/>
</clipPath>
</defs>
</svg>
