<svg width="255" height="231" viewBox="0 0 255 231" fill="none" xmlns="http://www.w3.org/2000/svg">
<path d="M96.6835 185.365V159.748C103.454 159.748 109.757 165.127 115.742 167.163C119.033 168.283 114.844 174.337 114.701 176.077C114.355 180.277 112.539 183.951 112.539 188.399V199.522C112.539 204.049 112.954 205.589 107.494 205.589C104.4 205.589 97.7638 206.043 95.7767 209.76C95.1904 210.857 92.59 211.896 92.0391 211.252C91.1029 210.157 89.849 212.33 88.4356 212.33C83.5226 212.33 90.2547 206.663 85.5128 207.649C84.5872 207.841 81.7061 210.111 81.5489 207.611C81.4648 206.274 81.5489 206.929 81.5489 205.589C81.5489 204.919 78.7685 206.777 78.237 206.28C77.6717 206.545 75.7187 205.763 75.048 203.567C74.3772 201.371 80.9405 199.791 82.2696 198.548C85.2109 195.797 88.962 195.472 92.039 193.118C93.4762 192.018 96.6835 192.042 96.6835 190.084V185.365Z" fill="#70534B" stroke="black" stroke-width="3" stroke-linecap="round"/>
<path d="M113.716 190.447V165.815C120.809 165.815 127.412 170.988 133.682 172.945C137.13 174.022 132.741 179.844 132.591 181.516C132.229 185.555 130.326 189.087 130.326 193.364V204.059C130.326 208.413 130.761 209.893 125.041 209.893C121.8 209.893 114.848 210.33 112.766 213.904C112.152 214.959 109.428 215.958 108.85 215.338C107.87 214.286 106.556 216.375 105.075 216.375C99.9285 216.375 106.981 210.926 102.013 211.874C101.044 212.059 98.0255 214.241 97.8608 211.838C97.7727 210.552 97.8608 211.182 97.8608 209.893C97.8608 209.249 94.948 211.036 94.3911 210.558C93.7989 210.812 91.7529 210.06 91.0502 207.949C90.3476 205.837 97.2233 204.319 98.6158 203.123C101.697 200.478 105.627 200.166 108.85 197.901C110.356 196.844 113.716 196.868 113.716 194.985V190.447Z" fill="#70534B" stroke="black" stroke-width="3" stroke-linecap="round"/>
<path d="M183.897 203.735C183.897 199.137 178.662 200.749 178.662 196.151C186.239 196.151 193.292 199.048 199.99 200.144C203.672 200.747 198.985 204.007 198.825 204.944C198.438 207.205 196.405 209.184 196.405 211.578V217.568C196.405 220.006 196.87 220.835 190.76 220.835C187.297 220.835 179.871 221.079 177.648 223.081C176.992 223.672 174.081 224.231 173.465 223.884C172.417 223.295 171.014 224.465 169.433 224.465C163.935 224.465 171.468 221.413 166.162 221.944C165.126 222.048 161.902 223.27 161.726 221.924C161.632 221.204 161.726 221.557 161.726 220.835C161.726 220.474 158.615 221.475 158.02 221.207C157.387 221.349 152.824 220.928 152.073 219.746C151.323 218.563 156.532 214.517 158.02 213.847C163.397 212.486 164.454 213.754 167.897 212.486C170.897 212.486 178.662 213.54 178.662 212.486C181.897 208.286 183.897 204.582 183.897 203.735Z" fill="#70534B" stroke="black" stroke-width="3" stroke-linecap="round"/>
<path d="M204.897 207.78C204.897 203.182 199.662 204.794 199.662 200.196C207.239 200.196 214.292 203.093 220.99 204.189C224.672 204.792 219.985 208.052 219.825 208.989C219.438 211.25 217.405 213.228 217.405 215.623V221.613C217.405 224.051 217.87 224.88 211.76 224.88C208.297 224.88 200.871 225.124 198.648 227.126C197.992 227.717 195.081 228.276 194.465 227.929C193.417 227.34 192.014 228.51 190.433 228.51C184.935 228.51 192.468 225.458 187.162 225.989C186.126 226.093 182.902 227.315 182.726 225.969C182.632 225.248 182.726 225.602 182.726 224.88C182.726 224.519 179.615 225.52 179.02 225.252C178.387 225.394 173.824 224.973 173.073 223.791C172.323 222.608 177.532 218.562 179.02 217.892C184.397 216.531 185.454 217.799 188.897 216.531C191.897 216.531 199.662 217.585 199.662 216.531C202.897 212.33 204.897 208.627 204.897 207.78Z" fill="#70534B" stroke="black" stroke-width="3" stroke-linecap="round"/>
<path d="M64.897 43.5558C63.6569 43.5558 62.9668 44.2718 64.1126 45.5028C66.1188 47.6583 71.438 47.6728 74.0249 46.8008C77.4385 45.6502 68.5221 42.4702 67.8921 42.2578" stroke="#A27452" stroke-width="3" stroke-linecap="round"/>
<path d="M68.32 43.9885C65.5579 43.9885 58.9376 44.2099 60.2379 48.4834C60.7779 50.2578 69.4435 47.1757 69.6036 45.7191C69.9631 42.447 66.227 43.632 64.6831 44.8538C64.3185 45.1423 61.6167 47.1762 62.3773 47.3537C63.9738 47.7262 67.2362 47.3962 68.4626 46.248C70.2731 44.5528 66.4735 43.1812 64.897 44.4211C63.4642 45.548 61.6791 46.3723 59.9527 46.921C59.4877 47.0688 58.7184 47.6633 59.6912 47.8344C61.5853 48.1675 63.3366 47.07 64.9921 46.3441C65.5517 46.0987 71.1478 44.7721 69.1282 44.2048C67.1831 43.6585 64.4263 43.7876 62.4248 44.0125C61.8025 44.0824 61.1754 45.0347 61.9019 45.3826C63.0385 45.9271 64.2644 45.8226 65.3249 45.2865" stroke="black" stroke-width="3" stroke-linecap="round"/>
<path d="M25.0561 30.9269C29.7269 28.5653 36 28.7969 40.6055 27.996C44 26.7745 42.1112 27.4767 44.5 26.2689C46.4874 25.264 49.8958 25.0139 51.5974 23.6374C53.4165 22.1658 58.7979 23.0952 61.2189 23.0952H70.5129C74.3553 23.0952 79.4017 22.1887 83.0835 23.2157C88.5561 24.7423 86.8589 21.2493 90.2327 19.2998C93.22 17.5737 93.9909 16.5889 97.7095 16.5889C101.381 16.5889 101.195 17.5981 101.195 21.0469C101.195 23.0691 100.323 24.5264 100.122 26.3484C99.9488 27.9278 97.9479 29.3439 100.122 30.5655C101.472 31.3238 102.589 31.3128 103.876 31.8908C104.743 32.2805 105.594 33.6998 106.318 33.909C108.604 34.5695 110.103 36.3806 111.68 37.9755C113.64 39.9572 116.664 41.6689 117.936 44.2408C118.599 45.5827 119.746 46.2154 120.378 47.494C120.765 48.2754 121.118 48.6653 121.838 49.1507C122.639 49.6905 122.247 50.6488 122.761 51.1689C123.257 51.6703 123.864 51.2232 124.251 52.1026C124.492 52.6525 124.792 53.564 125.323 53.8798C126.715 54.7079 127.12 56.2995 128.272 57.4644C129.312 58.5163 130.544 59.639 131.489 60.8079C133.042 62.7269 134.931 62.1333 137.328 62.1333C140.613 62.1333 144.763 61.4846 147.843 62.7959C149.747 63.6068 151.837 62.8285 153.741 63.6394C155.594 64.4281 158.594 64.302 160.592 64.302C164.437 64.302 167.477 67.4855 170.929 68.0673C174.248 68.6266 177.51 69.9817 181.027 70.2662C182.802 70.4098 190.008 70.0208 191.274 71.6217C191.993 72.5308 194.791 72.7501 195.862 72.947C197.547 73.257 197.796 73.7141 199.317 74.4833C204.393 77.0495 210.067 78.8901 214.866 81.9234C217.447 83.5545 220.254 84.9561 222.641 86.8333C225.555 89.1247 227.353 92.4115 229.999 95.0867C231.91 97.0194 234.299 100.139 235.361 102.677C235.88 103.918 236.438 105.147 237.267 106.172C238.195 107.318 238.061 109.268 238.995 110.118C240.145 111.164 242.3 114.63 242.718 116.112C243.446 118.686 245.079 121.159 245.846 123.642C247.871 130.195 249.719 136.536 249.719 143.703C249.719 146.729 250.34 150.529 249.689 153.493C248.868 157.231 247.775 161.835 247.574 165.693C247.393 169.17 247.038 172.443 247.038 175.994C247.038 179.427 247.385 182.954 245.697 186.025C244.31 188.55 245.898 192.85 244.059 195.242C242.181 197.684 241.399 201.328 240.067 204.188C238.747 207.025 237.542 210.384 234.705 211.659C232.828 212.503 231.799 211.871 229.999 213.526C228.896 214.54 226.307 214.309 224.875 214.791C223.321 215.315 223.299 216.117 221.479 216.117H210.1C204.791 216.117 199.737 215.604 194.611 214.068C191.573 213.158 188.351 212.929 185.257 211.9C182.491 210.979 179.817 210.152 177.035 209.49C175.246 209.064 173.592 207.572 171.852 207.442C170.075 207.308 168.888 205.499 167.146 205.303C163.432 204.886 159.801 203.739 156.66 201.718C154.804 200.524 151.968 200.204 150.494 198.465C149.604 197.415 148.455 195.845 147.426 194.971C145.216 193.094 144.723 189.793 142.064 188.043C140.038 186.709 138.119 185.96 136.166 184.669C133.354 182.81 126.425 179.82 126.425 179.82C126.425 179.82 125.102 179.35 124.132 179.127C122.598 178.774 121.428 177.298 119.931 177.109C117.638 176.819 115.616 174.911 113.289 174.127C110.03 173.028 106.912 170.872 103.876 169.066C102.85 168.456 101.558 166.386 100.659 166.235C99.3845 166.02 99.4942 164.467 98.484 164.126C97.4606 163.781 96.8069 163.692 95.952 162.861C94.7126 161.656 93.5878 160.266 91.9604 159.608C90.2819 158.929 89.2951 156.597 87.7602 155.692C85.9566 154.628 84.2459 153.679 82.9643 151.897C80 151.153 82.8843 151.897 79.2408 151.023C75.5974 150.15 74.9849 145.579 72.2406 145.089C71.0651 144.879 70.945 143.083 69.9767 142.378C68.8533 141.56 68.3544 140.194 67.4149 139.125C65.8398 137.333 64.1405 132.707 63.6914 130.209C63.3892 128.529 62.5892 126.816 62.5892 124.998C62.5892 122.411 61.3502 120.324 61.0104 117.919C60.7923 116.375 60.3792 114.816 59.8487 113.341C59.415 112.135 58.3793 111.798 58.2997 110.389C58.2338 109.222 57.8537 108.507 57.2273 107.557C54.6605 103.664 51.7048 100.172 48.5292 96.7133C46.3563 94.3471 43.9598 93.5494 40.6055 92.6167C37.9577 91.8804 35.4424 90.7147 32.6818 90.1165C26.7519 88.8316 21.1633 89.2482 15.7324 86.2911C11.4342 83.9508 6.73278 83.7508 4.80009 78.2786C3.07419 73.392 2 68.8988 2 63.6394C2 61.302 2.30874 59.1318 2.53619 56.8318C2.79091 54.2561 6.05371 50.9013 7.03421 48.3675C8.7917 43.8258 13.1436 39.5456 16.8345 36.5597C19.5088 34.3964 21.9966 32.4738 25.0561 30.9269Z" fill="#A27452" stroke="black" stroke-width="3" stroke-linecap="round" stroke-linejoin="round" stroke-dasharray="6 6"/>
<path d="M75.7828 16.5959C73.8476 18.3371 74.2631 20.7536 72 22.2242C70.8315 22.2242 86 24.7522 86 23.741C85 19.6961 83.8827 17.9385 83.6671 16.753C83.2479 14.4478 81.0425 14.1345 79.2142 14.1345C78.3454 14.1345 76.4212 16.0216 75.7828 16.5959Z" fill="#825B3F" stroke="black" stroke-width="3" stroke-linecap="round" stroke-dasharray="6 6"/>
<path d="M57.7141 43.51C56.2482 44.0974 54.1261 44.8398 54.1261 46.3807C54.1261 47.0198 54.9522 47.2565 55.6543 47.2786C57.0816 47.3237 59.5782 46.9959 60.1477 45.7515C60.2944 45.4309 60.5076 44.5415 60.3387 44.1916C59.9687 43.4253 58.854 43.5999 57.9799 43.6804C55.5938 43.9003 53.6282 44.6044 53.5364 46.7412C53.5149 47.2407 53.5538 48.4701 54.5912 48.1307C55.8858 47.7071 57.1264 47.1359 58.3121 46.5511C58.9252 46.2488 60.7928 45.5775 60.6709 44.8077C60.5577 44.0932 59.7101 43.5725 58.8437 43.6542C56.5699 43.8687 53.5042 45.2904 52.7474 47.082C52.3629 47.9921 53.3844 48.347 54.3587 48.347C56.037 48.347 58.1518 47.5939 58.8105 46.2759C59.0312 45.8342 59.1267 45.1381 58.3121 45.4238C56.9309 45.9082 55.7588 47.2339 55.9284 48.4387C56.0371 49.2103 59.1582 46.705 59.3088 46.5642C59.9113 46.001 60.7446 44.6973 59.342 44.5128C57.6299 44.2876 55.407 44.7119 54.0513 45.5811C52.4568 46.6035 54.4558 47.2535 55.538 47.377C57.6086 47.6131 60.9224 47.968 62.5812 46.6953C63.4092 46.0601 62.9927 45.1162 61.95 44.8208C60.5405 44.4216 58.1891 44.8409 57.1659 45.6794C56.773 46.0014 56.3812 46.5045 57.1826 46.4594C58.3281 46.3948 59.9031 45.5087 60.6045 44.8077C60.8367 44.5755 60.6387 44.4798 60.3387 44.539C58.812 44.8402 57.3656 45.7126 56.1693 46.479C55.9928 46.5921 52.4003 49.1879 53.9268 49.2842C56.5156 49.4476 59.4053 48.7212 61.4849 47.5343C62.5139 46.9469 63.7605 45.5824 63.0961 44.5062C62.4448 43.4512 60.3947 43.914 59.3752 44.2441C57.8261 44.7456 56.5181 45.5871 56.5181 46.964C56.5181 47.0489 56.4139 47.4843 56.651 47.4687C57.506 47.4125 58.4991 46.481 59.1593 46.1186C59.8457 45.7418 60.6887 45.4305 61.1775 44.8733C61.5033 44.502 61.6373 44.0821 60.9118 44.1261C59.3356 44.2218 57.6862 44.73 56.2357 45.1879C54.6307 45.6945 53.3815 46.2501 52.3321 47.2852" stroke="black" stroke-width="3" stroke-linecap="round"/>
<path d="M61.6011 46.3416V46.4595" stroke="black" stroke-width="3" stroke-linecap="round"/>
<path d="M62.4981 43.8639C62.4981 43.4155 60.4659 42.4482 59.7407 42.4482C58.6747 42.4482 57.9589 42.7241 57.0497 43.2151C55.3033 44.158 53.7878 45.6629 53.6776 47.4032C53.6564 47.7372 53.5281 48.1095 53.5281 48.406C53.5281 48.9304 54.9413 47.9488 55.0397 47.8882C56.3008 47.1117 58.5929 46.2272 59.1177 44.9388C59.5649 43.8411 56.7019 44.3094 56.0031 44.4669C54.7712 44.7447 53.1496 45.9071 52.9384 46.9903C52.8913 47.2316 52.7675 48.2113 53.0796 48.3208C53.366 48.4212 54.1019 47.5727 54.2341 47.4163C54.5906 46.9942 53.8194 47.4808 53.6776 47.7047C53.5418 47.919 53.3955 48.1199 53.2291 48.3208C52.9342 48.6767 53.2577 48.9595 53.6693 48.5698C54.4771 47.8049 54.4811 47.2852 53.1543 47.2852C52.9647 47.2852 52.249 48.1499 52.249 48.347C52.249 48.6372 52.6832 47.814 52.6228 47.5277C52.542 47.1454 52.0448 47.6504 52.0331 47.8489C52.0198 48.0733 51.9612 48.414 52.0414 48.6354C52.1194 48.8509 52.4638 48.5909 52.4816 48.4649C52.501 48.3268 52.7452 48.0986 52.6228 47.9537C52.6096 47.9381 52.2014 49.0392 52.1826 49.1728" stroke="black" stroke-width="3" stroke-linecap="round"/>
<path d="M63.5447 44.8076C63.5034 45.3286 62.719 46.1625 62.1659 46.4593C61.7096 46.7041 61.201 46.827 60.7374 47.0491C59.6283 47.5805 58.5078 47.7735 57.3321 48.1109C56.4619 48.3606 55.4959 48.4039 54.6494 48.7008C54.3095 48.82 53.9636 48.816 53.6195 48.9367C53.4572 48.9937 53.0821 49.4067 52.9301 49.5266" stroke="black" stroke-width="3" stroke-linecap="round"/>
<path d="M8.02412 48.0967C7.62606 48.857 4.59058 54.3554 6.78479 54.9893C9.71259 55.8352 10.1057 50.956 10.5981 48.9643" stroke="black" stroke-width="3" stroke-linecap="round"/>
<path d="M8.76245 50.7764V50.4277" stroke="black" stroke-width="3" stroke-linecap="round"/>
<path d="M9.27966 47.1154C9.3043 46.7168 9.83188 46.5798 10.0459 46.9508C10.2455 47.2967 10.362 47.784 10.4865 48.1614" stroke="black" stroke-width="3" stroke-linecap="round"/>
<path d="M33.9409 25.8701C31.1924 17.7847 34.6333 7.4057 42.0718 3.19351C43.1517 2.07727 46.5111 2 47.9732 2C49.0857 2 50.1272 2.59675 51.219 2.59675H52.9894C53.6418 2.59675 53.8812 3.16072 54.4648 3.19351C56.3386 3.29878 59.5086 5.30672 60.6612 6.84033C61.6309 8.13054 62.8975 8.58931 63.3825 10.3546C63.8494 12.0544 63.907 13.503 63.907 15.2778C63.907 19.5537 63.2279 23.6546 62.1366 27.793C61.5148 30.151 59.1629 31.745 57.1204 32.7328C54.2342 34.1286 52.377 35.0556 49.1535 34.8049C45.4456 34.5164 41.5659 33.7866 38.2359 32.1029C35.8063 30.8745 34.7834 28.3485 33.9409 25.8701Z" fill="#FF9100" stroke="black" stroke-width="3" stroke-linecap="round" stroke-dasharray="6 6"/>
<path d="M222.941 219.702C220.192 211.617 223.633 201.238 231.072 197.026C232.152 195.909 235.511 195.832 236.973 195.832C238.086 195.832 239.127 196.429 240.219 196.429H241.989C242.642 196.429 242.881 196.993 243.465 197.026C245.339 197.131 248.509 199.139 249.661 200.672C250.631 201.963 251.898 202.421 252.382 204.187C252.849 205.886 252.907 207.335 252.907 209.11C252.907 213.386 252.228 217.487 251.137 221.625C250.515 223.983 248.163 225.577 246.12 226.565C243.234 227.961 241.377 228.888 238.153 228.637C234.446 228.348 230.566 227.619 227.236 225.935C224.806 224.707 223.783 222.181 222.941 219.702Z" fill="#FF9100" stroke="black" stroke-width="3" stroke-linecap="round" stroke-dasharray="6 6"/>
<path d="M47.7312 6.27944C47.7657 5.54614 48.447 3.77249 48.447 3.01123C48.7295 3.59663 49.552 3.83482 49.9139 4.34781C50.2327 4.79978 50.7324 5.11505 51.0981 5.52418C51.4137 5.87729 51.3908 6.13072 51.7874 5.91325C52.6282 5.4521 53.2288 4.44573 54.0496 3.87177C54.1602 3.79442 55.2168 3.06621 55.2824 3.30418C55.3486 3.5441 55.2136 3.80183 55.2073 4.03655C55.1904 4.66701 54.8684 5.24753 54.6064 5.80797C54.2752 6.51613 53.5588 7.39145 53.5371 8.20191C53.5225 8.74754 53.9654 9.21628 54.3943 9.50187C54.8893 9.83157 55.3887 10.1289 55.8877 10.4448C56.4154 10.7789 54.9201 11.5238 54.7654 11.6257C54.4537 11.8313 54.0068 11.9539 53.652 12.056C53.3433 12.1448 53.4578 12.6055 53.4134 12.8754C53.3268 13.4005 53.3253 14.1532 52.6976 14.1341C52.3836 14.1246 51.947 13.89 51.6283 13.8C50.9471 13.6075 50.3026 13.1616 49.7195 12.7701C49.4822 12.6107 49.3249 12.7295 49.1628 12.9394C48.8711 13.3171 47.9763 13.3265 47.5456 13.4567C47.4518 13.485 46.7061 13.8046 46.7061 13.7496C46.7061 13.5879 46.7768 13.4318 46.7768 13.2644C46.7768 12.5322 47.278 11.491 46.9756 10.8018C46.7714 10.3364 46.176 10.2636 45.7428 10.1061C44.8921 9.79675 43.9693 9.57088 43.1934 9.08076C42.9855 8.94946 42.9374 8.93752 43.0873 8.80612C43.3083 8.61237 43.3747 8.44184 43.6661 8.34839C44.2482 8.16175 44.8472 8.04231 45.4335 7.87234C46.1401 7.66755 46.8302 7.39034 47.5191 7.13082C47.5969 7.1015 47.5721 6.99393 47.5721 6.92484C47.5721 6.68286 47.7197 6.52356 47.7312 6.27944Z" fill="#2E881E" stroke="black" stroke-width="3" stroke-linecap="round"/>
<path d="M243.345 198.497C242.759 198.916 241.946 199.624 241.637 199.717C240.457 200.607 239.25 201.523 239.101 201.241C238.843 200.751 238.388 200.374 238.078 199.922C237.811 199.531 237.866 199.282 237.445 199.447C236.552 199.796 235.827 200.717 234.939 201.18C234.636 201.339 233.996 200.594 233.962 200.349C233.901 200.497 233.852 200.65 233.822 200.808C233.816 200.846 233.811 200.876 233.808 200.891C233.806 200.906 233.806 200.908 233.808 200.891C233.809 200.886 233.81 200.878 233.812 200.868C233.815 200.848 233.819 200.828 233.822 200.808C233.857 200.608 233.938 200.178 233.962 200.349C234.132 199.938 234.4 199.56 234.636 199.189C235.055 198.529 235.879 197.753 236.004 196.952C236.089 196.413 235.71 195.891 235.322 195.553C234.873 195.162 234.416 194.803 233.962 194.426C233.482 194.026 235.06 193.48 235.227 193.399C235.562 193.235 236.021 193.171 236.386 193.115C236.704 193.067 236.65 192.596 236.728 192.334C236.882 191.824 236.98 191.078 237.6 191.177C237.91 191.227 238.313 191.516 238.618 191.646C239.269 191.925 239.85 192.45 240.378 192.913C240.593 193.102 240.764 193.004 240.952 192.817C241.29 192.48 242.178 192.586 242.622 192.512C242.719 192.496 243.5 192.275 243.493 192.33C243.472 192.49 243.382 192.636 243.36 192.802C243.266 193.528 242.635 194.496 242.846 195.218C242.988 195.706 243.57 195.855 243.979 196.067C244.783 196.483 245.669 196.826 246.375 197.412C246.564 197.569 246.611 197.587 246.445 197.698C246.201 197.862 246.113 198.022 245.812 198.077C245.211 198.188 244.601 198.229 243.998 198.322C243.83 198.348 243.661 198.378 243.494 198.411C243.447 198.437 243.397 198.466 243.345 198.497Z" fill="#2E881E"/>
<path d="M243.998 198.322C244.096 197.567 241.386 200.329 241.515 199.606C241.557 199.365 241.724 199.226 241.755 198.986C241.764 198.918 241.754 198.808 241.834 198.789C242.551 198.62 243.271 198.434 243.998 198.322ZM243.998 198.322C244.601 198.229 245.211 198.188 245.812 198.077C246.113 198.022 246.201 197.862 246.445 197.698C246.611 197.587 246.564 197.569 246.375 197.412C245.669 196.826 244.783 196.483 243.979 196.067C243.57 195.855 242.988 195.706 242.846 195.218C242.635 194.496 243.266 193.528 243.36 192.802C243.382 192.636 243.472 192.49 243.493 192.33C243.5 192.275 242.719 192.496 242.622 192.512C242.178 192.586 241.29 192.48 240.952 192.817C240.764 193.004 240.593 193.102 240.378 192.913C239.85 192.45 239.269 191.925 238.618 191.646C238.313 191.516 237.91 191.227 237.6 191.177C236.98 191.078 236.882 191.824 236.728 192.334C236.65 192.596 236.704 193.067 236.386 193.115C236.021 193.171 235.562 193.235 235.227 193.399C235.06 193.48 233.482 194.026 233.962 194.426C234.416 194.803 234.873 195.162 235.322 195.553C235.71 195.891 236.089 196.413 236.004 196.952C235.878 197.753 235.055 198.529 234.636 199.189C234.304 199.711 233.91 200.245 233.812 200.868C233.776 201.1 233.927 200.103 233.962 200.349C233.996 200.594 234.636 201.339 234.939 201.18C235.827 200.717 236.552 199.796 237.445 199.447C237.866 199.282 237.811 199.531 238.078 199.922C238.388 200.374 238.843 200.751 239.101 201.241C239.394 201.796 243.793 197.705 243.998 198.322Z" stroke="black" stroke-width="3" stroke-linecap="round"/>
</svg>
