<svg width="135" height="98" viewBox="0 0 135 98" fill="none" xmlns="http://www.w3.org/2000/svg">
<path d="M125.508 36.2401C127.519 45.4458 123.2 55.3803 114.047 64.0415C104.918 72.6797 91.166 79.8435 74.9396 83.3891C58.7132 86.9347 43.2263 86.1598 31.3266 82.1164C19.3952 78.0623 11.3257 70.835 9.31417 61.6292C7.30266 52.4235 11.6222 42.4891 20.7752 33.8279C29.904 25.1897 43.6561 18.0258 59.8825 14.4802C76.109 10.9346 91.5958 11.7096 103.496 15.7529C115.427 19.807 123.496 27.0344 125.508 36.2401Z" fill="white" stroke="black" stroke-width="3"/>
<path d="M51.3683 48.5165C51.321 48.3137 51.4775 49.1563 51.8377 51.0444C52.1964 52.9261 52.6168 54.9005 53.099 56.9674C53.4613 58.5207 53.8117 59.9799 54.1502 61.345C54.4887 62.71 54.6372 63.3038 54.5958 63.1263C54.8161 64.071 54.5871 64.6224 53.9087 64.7807C53.522 64.8709 53.2246 64.7999 53.0167 64.5676C52.8724 64.4074 52.7357 64.1083 52.6069 63.6704C52.4794 63.2389 52.2959 62.5095 52.0564 61.4824L51.0736 57.2694C50.3094 57.461 49.2521 57.7143 47.9016 58.0293C45.4035 58.612 43.456 59.0329 42.0591 59.2919C42.3384 60.8045 42.6355 62.236 42.9506 63.5864C43.0452 63.9922 43.1504 64.429 43.2662 64.8967C43.3805 65.358 43.4436 65.614 43.4554 65.6648C43.6063 66.3115 43.6423 66.7811 43.5634 67.0735C43.4778 67.3944 43.2384 67.6006 42.8454 67.6923C42.4649 67.781 42.1669 67.7068 41.9511 67.4697C41.7461 67.2501 41.5734 66.8392 41.4329 66.2368C41.1445 65.0005 40.671 62.7845 40.0125 59.5888C39.5325 59.4802 39.2549 59.2642 39.1794 58.9408C39.0759 58.497 39.2454 58.1633 39.688 57.9397C39.3753 56.1408 39.0469 54.0882 38.7028 51.7818C38.6418 50.947 38.9251 50.4564 39.5528 50.31C40.1741 50.1651 40.5735 50.473 40.751 51.2339C40.7658 51.2973 40.8588 51.9107 41.0299 53.0741C41.2407 54.5224 41.4735 55.979 41.7283 57.4437C42.4443 57.3035 43.5631 57.0559 45.0848 56.7009C47.0185 56.2498 48.8636 55.7626 50.6201 55.2392C49.8958 51.9051 49.4759 49.8471 49.3604 49.0651C49.225 48.1408 49.4711 47.6053 50.0988 47.4589C50.7455 47.3081 51.1687 47.6606 51.3683 48.5165ZM65.0962 51.7622C65.25 52.4216 65.1356 52.963 64.7531 53.3865C64.5827 53.5733 63.9813 53.9041 62.9489 54.3789C61.5792 55.0126 60.3871 55.4478 59.3727 55.6844C58.9099 55.7924 58.3445 55.8909 57.6767 55.9798C58.2343 58.37 59.4229 59.3529 61.2425 58.9285C61.7434 58.8116 62.1634 58.5632 62.5027 58.1833C62.673 57.9965 62.9585 57.5722 63.359 56.9106C63.5033 56.6696 63.6801 56.5248 63.8894 56.476C64.1556 56.4139 64.4076 56.4621 64.6451 56.6206C64.8875 56.7713 65.0427 56.9925 65.1107 57.2841C65.1669 57.525 65.1268 57.7684 64.9902 58.0142C64.1777 59.4605 63.0392 60.3545 61.5746 60.6961C58.544 61.4031 56.6198 60.0035 55.8019 56.4973C55.3804 54.6904 55.4984 53.0183 56.156 51.4811C56.9053 49.7353 58.0883 48.6738 59.7051 48.2966C60.9668 48.0023 62.1049 48.1814 63.1195 48.8339C64.1341 49.4863 64.793 50.4624 65.0962 51.7622ZM63.2303 52.3178C62.9866 51.4454 62.5925 50.8019 62.0479 50.3875C61.5097 49.9715 60.9236 49.8375 60.2895 49.9854C59.4653 50.1776 58.8081 50.6418 58.318 51.3779C57.8103 52.1247 57.5252 53.0803 57.4625 54.2448C57.9245 54.1905 58.4091 54.1042 58.9163 53.9859C60.1463 53.699 61.5843 53.1429 63.2303 52.3178ZM71.3719 58.7417C71.4725 59.1728 71.5127 59.4743 71.4927 59.6461C71.4499 59.9502 71.2447 60.1452 70.877 60.2309C70.2747 60.3714 69.8057 59.9661 69.4702 59.0148C68.9018 57.4092 68.2834 55.1736 67.6149 52.3078C66.868 49.106 66.4532 47.127 66.3704 46.3708C66.284 45.542 66.5103 45.0647 67.0492 44.939C67.6832 44.7911 68.0897 45.1007 68.2686 45.8679C68.313 46.0581 68.4549 46.8239 68.6942 48.1652C68.9321 49.5003 69.1812 50.7257 69.4415 51.8416C69.6693 52.818 70.015 54.071 70.4788 55.6007C70.9411 57.1241 71.2388 58.1711 71.3719 58.7417ZM76.7974 57.4761C76.8979 57.9072 76.9382 58.2087 76.9181 58.3805C76.8754 58.6846 76.6702 58.8796 76.3024 58.9654C75.7001 59.1059 75.2312 58.7005 74.8956 57.7492C74.3273 56.1437 73.7088 53.908 73.0403 51.0422C72.2935 47.8404 71.8786 45.8614 71.7958 45.1053C71.7094 44.2764 71.9357 43.7991 72.4746 43.6734C73.1087 43.5255 73.5151 43.8351 73.6941 44.6023C73.7385 44.7925 73.8803 45.5583 74.1197 46.8997C74.3576 48.2347 74.6066 49.4602 74.8669 50.576C75.0947 51.5524 75.4405 52.8055 75.9043 54.3352C76.3666 55.8585 76.6643 56.9055 76.7974 57.4761ZM88.2544 47.6337C88.6892 49.4977 88.4908 51.1117 87.6591 52.4756C86.8259 53.8332 85.4995 54.7242 83.6798 55.1487C82.1709 55.5007 80.8686 55.2629 79.7731 54.4355C78.6761 53.6017 77.9139 52.2686 77.4865 50.4363C77.0369 48.5089 77.2046 46.892 77.9896 45.5858C78.76 44.3031 80.0455 43.4517 81.8461 43.0316C83.3551 42.6796 84.6991 42.9244 85.8781 43.7658C87.0571 44.6072 87.8492 45.8965 88.2544 47.6337ZM86.3663 48.0942C86.069 46.8198 85.5262 45.8969 84.7377 45.3254C83.9541 44.746 83.0265 44.5813 81.9551 44.8313C79.5648 45.3889 78.7046 47.1037 79.3746 49.9758C79.6837 51.3009 80.1818 52.261 80.8688 52.8562C81.5543 53.445 82.3821 53.6263 83.3522 53.4C84.6075 53.1072 85.504 52.4936 86.0415 51.5594C86.5789 50.6251 86.6872 49.47 86.3663 48.0942ZM91.8781 40.3205C91.921 40.5044 91.9284 41.1812 91.9004 42.3509C91.8505 44.1141 92.0098 45.9722 92.3784 47.9252C92.5367 48.8041 92.6162 49.3171 92.617 49.4639C92.6081 49.827 92.4262 50.05 92.0711 50.1328C91.7097 50.2171 91.4073 50.067 91.1639 49.6826C90.939 49.3206 90.7164 48.6672 90.4961 47.7225C90.1056 46.0487 89.9826 44.0451 90.1268 41.7117C90.1958 40.5458 90.5156 39.8963 91.0862 39.7632C91.5047 39.6655 91.7686 39.8513 91.8781 40.3205ZM94.0009 52.4303C94.0778 52.7599 94.0431 53.0555 93.8969 53.3169C93.7491 53.572 93.5263 53.7343 93.2283 53.8038C92.9303 53.8733 92.6515 53.8247 92.392 53.6579C92.1389 53.4897 91.9746 53.2439 91.8991 52.9205C91.8281 52.6162 91.8704 52.3389 92.026 52.0887C92.1815 51.8385 92.4115 51.6779 92.7158 51.6069C93.0201 51.5359 93.2903 51.5765 93.5264 51.7287C93.7688 51.8794 93.927 52.1132 94.0009 52.4303Z" fill="black"/>
<path d="M118.114 76.1915C118.32 76.8015 118.268 77.5442 117.773 78.4301C117.273 79.3244 116.36 80.2818 115.029 81.2206C112.371 83.0955 108.268 84.7369 103.341 85.6259C98.4146 86.5149 93.738 86.4578 90.191 85.7026C88.4151 85.3245 86.9977 84.7875 85.9855 84.1662C84.9826 83.5506 84.4636 82.911 84.2575 82.301C84.0514 81.6909 84.1033 80.9483 84.5989 80.0624C85.099 79.1681 86.0115 78.2106 87.3424 77.2719C90.0007 75.397 94.1034 73.7556 99.0302 72.8666C103.957 71.9775 108.634 72.0347 112.181 72.7899C113.956 73.168 115.374 73.705 116.386 74.3263C117.389 74.9419 117.908 75.5815 118.114 76.1915Z" fill="white" stroke="black" stroke-width="3"/>
</svg>
