<svg width="81" height="51" viewBox="0 0 81 51" fill="none" xmlns="http://www.w3.org/2000/svg">
<path d="M59.9877 47.2996C60.523 48.1419 62.0844 48.6269 63.0812 48.8062" stroke="black" stroke-width="3" stroke-linecap="round"/>
<path d="M4.06264 15.9074C4.16876 12.1841 12.6699 9.83017 12.6699 9.83017C14.3479 9.52033 16.4865 9.06807 18.0111 8.4703C19.7841 7.77508 22.0829 7.6179 24.0008 7.20421C25.7591 6.82494 27.5294 6.29414 29.2712 5.8631C33.0622 4.92498 38.1235 3.78197 38.1235 3.78197C41.3298 3.72884 45.0768 3.04066 48.1049 2.31807C51.0253 1.6212 57.4006 2.28124 60.3634 2.31806C63.2059 2.35339 66.4426 2.86116 68.6404 4.38131C71.3944 6.2861 75.2405 13.9475 76.288 16.7034C76.6779 17.9439 77.7617 21.8045 78.0494 23.0631C78.2892 24.1123 78.8748 28.5336 78.8748 29.5811C78.8748 30.9792 79.1857 32.5812 78.8276 33.9421C78.4968 35.1993 78.3193 36.2636 77.283 37.2527C76.0489 38.4306 75.3549 39.2981 73.0973 39.4566C71.1148 39.5957 69.0575 40.2995 67.1784 40.7977C64.8857 41.4056 62.3205 41.1674 60.0096 41.6511C59.7517 41.7051 56.5903 41.4413 57.8637 42.3264C59.1371 43.2114 58.4697 45.3609 59.1371 45.7401C59.1371 45.7401 61.3789 48.6901 62.8395 49.009C60.3731 48.8669 56.7671 48.9085 54.3855 48.3286C53.0116 47.994 47.6296 46.4246 47.6296 46.4246C45.7667 46.4246 39.0741 44.5959 39.0741 44.5959C39.0741 44.5959 34.8823 44.1402 32.4198 44.1633C30.4595 44.1816 19.9639 45.5338 17.9403 45.5338H15.3699C13.9843 45.5338 12.4203 44.8606 11.031 44.5959C9.09161 44.2266 8.72479 41.063 8.22477 39.8036C7.73807 38.5777 7.18921 37.3781 6.70376 36.1554C5.6751 33.5644 5.39803 30.7316 4.16876 28.165C3.84464 27.4882 3.41324 26.7848 3.01327 26.1111C2.40754 25.0908 2.39265 24.1326 2.15254 23.0631C1.7897 21.4469 2.11068 19.4945 2.73029 17.9613C2.96259 17.3864 3.50039 16.3546 4.06264 15.9074Z" fill="white" stroke="black" stroke-width="3" stroke-linecap="round"/>
<path d="M61.2106 48.5586C61.9094 48.5586 62.7021 48.8332 63.339 49.0622" stroke="black" stroke-width="3" stroke-linecap="round"/>
<path d="M30.0682 20.7901C30.036 20.6266 30.1376 21.3046 30.3728 22.8243C30.6071 24.3388 30.8881 25.929 31.2158 27.595C31.4621 28.8471 31.7015 30.0235 31.934 31.1243C32.1665 32.2252 32.2686 32.704 32.2405 32.5609C32.3903 33.3224 32.1918 33.7569 31.645 33.8645C31.3332 33.9258 31.0975 33.8607 30.9377 33.6692C30.8268 33.5371 30.7259 33.2942 30.6351 32.9405C30.5453 32.5919 30.419 32.0036 30.2561 31.1757L29.5881 27.7799C28.9717 27.9118 28.1193 28.0848 27.0308 28.2989C25.0173 28.695 23.4485 28.9771 22.3244 29.1451C22.5054 30.3622 22.703 31.5151 22.9171 32.6036C22.9815 32.9306 23.0534 33.2827 23.1329 33.6599C23.2114 34.032 23.2547 34.2384 23.2627 34.2793C23.3653 34.8006 23.3809 35.177 23.3097 35.4087C23.2323 35.6628 23.0352 35.821 22.7183 35.8833C22.4117 35.9436 22.1755 35.876 22.0096 35.6804C21.8518 35.4991 21.7252 35.1657 21.6297 34.6802C21.4337 33.6837 21.117 31.8987 20.6798 29.3253C20.2991 29.2251 20.0831 29.0446 20.0318 28.784C19.9615 28.4263 20.1063 28.1642 20.4664 27.9978C20.2667 26.5508 20.0614 24.9005 19.8507 23.047C19.8253 22.3779 20.0655 21.9935 20.5714 21.894C21.0722 21.7955 21.383 22.0528 21.5036 22.6661C21.5137 22.7172 21.5708 23.2102 21.6751 24.1452C21.8032 25.309 21.9487 26.48 22.1115 27.6583C22.6879 27.5661 23.5893 27.3994 24.8158 27.1581C26.3745 26.8515 27.8632 26.5135 29.2822 26.1441C28.7963 23.4582 28.518 21.8011 28.4475 21.1727C28.3651 20.4298 28.5768 20.0086 29.0827 19.9091C29.604 19.8065 29.9325 20.1002 30.0682 20.7901ZM40.9531 23.7685C41.0577 24.3 40.9511 24.7297 40.6334 25.0576C40.492 25.2022 40.002 25.4499 39.1633 25.8007C38.0505 26.2691 37.0852 26.5837 36.2676 26.7445C35.8945 26.8179 35.4398 26.8808 34.9033 26.9333C35.2824 28.8599 36.2052 29.6789 37.6719 29.3904C38.0756 29.311 38.4184 29.1241 38.7002 28.8298C38.8416 28.6852 39.0817 28.354 39.4204 27.8362C39.5425 27.6476 39.6879 27.5367 39.8566 27.5035C40.0712 27.4613 40.2713 27.5069 40.4568 27.6403C40.6463 27.7675 40.7643 27.9487 40.8105 28.1838C40.8487 28.378 40.8098 28.5714 40.6938 28.7641C40.0038 29.8978 39.0685 30.5807 37.888 30.8129C35.4453 31.2935 33.9459 30.1207 33.39 27.2947C33.1034 25.8382 33.2445 24.5047 33.8132 23.294C34.461 21.9192 35.4365 21.1035 36.7397 20.8472C37.7566 20.6471 38.6616 20.8221 39.4545 21.3721C40.2475 21.9221 40.747 22.7209 40.9531 23.7685ZM39.4458 24.1606C39.2754 23.4563 38.9782 22.9308 38.5544 22.5843C38.1357 22.2367 37.6708 22.1131 37.1598 22.2137C36.4954 22.3444 35.957 22.6971 35.5446 23.2719C35.1178 23.8548 34.8632 24.6109 34.7806 25.5402C35.1514 25.5097 35.5413 25.4542 35.9501 25.3738C36.9415 25.1787 38.1068 24.7743 39.4458 24.1606ZM45.7757 29.524C45.8441 29.8715 45.8678 30.1137 45.847 30.2505C45.8043 30.4924 45.6348 30.6425 45.3384 30.7009C44.8529 30.7964 44.4893 30.4592 44.2476 29.6893C43.838 28.3897 43.406 26.585 42.9516 24.2751C42.4439 21.6943 42.1675 20.1005 42.1225 19.4937C42.0765 18.8286 42.2708 18.4533 42.7052 18.3678C43.2162 18.2673 43.5325 18.5262 43.6542 19.1446C43.6843 19.2979 43.7764 19.9141 43.9303 20.9932C44.0832 22.0672 44.2481 23.054 44.425 23.9534C44.5799 24.7404 44.8213 25.7519 45.1494 26.9878C45.4764 28.2187 45.6852 29.0641 45.7757 29.524ZM50.1488 28.6637C50.2171 29.0112 50.2409 29.2534 50.22 29.3902C50.1774 29.6321 50.0078 29.7823 49.7114 29.8406C49.226 29.9361 48.8624 29.5989 48.6207 28.829C48.2111 27.5294 47.7791 25.7247 47.3247 23.4148C46.817 20.8341 46.5406 19.2402 46.4955 18.6334C46.4496 17.9683 46.6438 17.593 47.0782 17.5075C47.5893 17.407 47.9056 17.6659 48.0272 18.2843C48.0574 18.4376 48.1494 19.0538 48.3033 20.1329C48.4562 21.2069 48.6211 22.1937 48.7981 23.0931C48.9529 23.8801 49.1944 24.8916 49.5224 26.1275C49.8495 27.3584 50.0583 28.2038 50.1488 28.6637ZM59.5837 21.1146C59.8793 22.6171 59.6755 23.9019 58.9725 24.9691C58.2684 26.0313 57.1831 26.7066 55.7164 26.9951C54.5001 27.2344 53.4656 27.008 52.6128 26.3158C51.7591 25.6185 51.1869 24.5314 50.8964 23.0545C50.5907 21.501 50.77 20.213 51.4341 19.1906C52.0858 18.1865 53.1374 17.5417 54.5888 17.2562C55.805 17.0169 56.8727 17.2501 57.7918 17.9558C58.711 18.6614 59.3083 19.7144 59.5837 21.1146ZM58.0613 21.43C57.8592 20.4029 57.451 19.6498 56.8365 19.1708C56.2262 18.6858 55.4892 18.5282 54.6256 18.6981C52.699 19.0771 51.9634 20.4241 52.4188 22.7391C52.6289 23.8072 53.0003 24.5887 53.5329 25.0838C54.0646 25.5737 54.7214 25.7418 55.5033 25.5879C56.5151 25.3889 57.249 24.9234 57.7048 24.1914C58.1606 23.4594 58.2794 22.539 58.0613 21.43ZM62.6851 15.3688C62.7143 15.517 62.7014 16.0584 62.6463 16.9928C62.5571 18.4011 62.6326 19.8911 62.8728 21.4629C62.9747 22.17 63.024 22.5823 63.0206 22.6998C63.0033 22.9898 62.8516 23.163 62.5654 23.2193C62.2741 23.2766 62.0365 23.1482 61.8526 22.834C61.683 22.5383 61.5233 22.0097 61.3735 21.2482C61.1081 19.8991 61.0656 18.2937 61.2462 16.4322C61.3339 15.502 61.6077 14.9916 62.0676 14.9011C62.4049 14.8348 62.6108 14.9907 62.6851 15.3688ZM64.0441 25.11C64.0964 25.3758 64.0604 25.6111 63.9362 25.816C63.8109 26.0158 63.6282 26.1394 63.388 26.1866C63.1478 26.2339 62.9263 26.1872 62.7235 26.0466C62.5258 25.905 62.4013 25.7039 62.35 25.4433C62.3018 25.198 62.3433 24.9775 62.4747 24.7818C62.6061 24.5861 62.7944 24.4641 63.0397 24.4159C63.285 24.3676 63.4999 24.4076 63.6843 24.5359C63.8739 24.6631 63.9939 24.8545 64.0441 25.11Z" fill="black"/>
</svg>
