<svg width="25" height="34" viewBox="0 0 25 34" fill="none" xmlns="http://www.w3.org/2000/svg">
<path d="M9.685 17.8551C7.34983 17.8268 5.63782 15.4958 4.48467 14.1156C3.5976 13.0539 3.16132 12.5184 1.52595 11.0552C0.708268 9.88412 0.888375 8.47244 1.75958 7.83773C2.19292 7.52202 3.27813 6.96143 6.08162 9.19938C7.36655 10.6768 7.76595 10.9633 8.49635 11.9212C8.767 12.2761 9.17052 12.625 9.56343 12.8954C10.0181 13.2082 10.7662 13.1819 11.0222 12.669C11.3153 12.0819 11.2654 11.48 11.2654 10.8633C11.2654 10.5508 11.1169 10.1832 10.9952 9.88412C10.8407 9.50422 10.9007 9.14748 10.9007 8.73768C10.9007 7.63695 10.6575 6.56373 10.6575 5.45579V3.34988C10.6575 2.90642 10.6952 2.28475 10.9952 1.91313C11.6129 1.14816 12.8299 0.904214 14.0614 1.03239C15.3258 1.16398 16.1588 1.99368 16.5535 2.7988C16.5535 2.51019 16.9271 4.10415 16.8304 3.82223C16.7181 3.49506 16.7053 3.10853 16.5535 2.7988C16.5535 3.65597 17.788 9.96623 17.8898 10.819C17.9091 10.8925 17.9297 10.9711 17.9515 11.0552C18.3469 11.9212 18.3469 11.7954 18.3469 11.4972C18.3469 11.9212 18.8147 10.9136 18.924 10.819C19.1072 10.6605 19.1672 10.102 19.1672 9.88412C19.1672 9.41571 19.2887 8.89994 19.2887 8.39817C19.2887 8.00232 19.0951 7.32316 19.3157 6.96143C19.517 6.63145 19.4277 6.25233 19.802 6.00688C20.2322 5.72478 20.8865 5.59227 21.531 5.72641C22.7842 5.98729 23.1712 7.48637 23.5976 8.19644C24.1375 9.0956 24.0069 10.4804 23.9214 11.4972C23.9214 11.5303 23.9174 11.5761 23.9102 11.6312C23.9096 11.6393 23.9089 11.6474 23.9083 11.6555C23.9032 11.7175 23.902 11.7149 23.9029 11.6837C23.8419 12.0918 23.6454 12.8805 23.5436 13.029C23.5436 13.3063 23.3255 13.3869 23.253 13.6247C23.2168 13.7433 23.011 14.0225 22.9087 14.1156C22.646 14.3549 22.1126 14.5767 21.7201 14.7356C21.4214 14.8565 21.1885 15.0049 20.8691 15.1046C20.6664 15.1679 20.4606 15.2289 20.2545 15.2867C19.965 15.3678 19.7896 15.5605 19.5319 15.6213C18.2631 15.9203 17.5868 16.5218 17.5868 17.5205V21.0435C17.5868 24.4955 17.4652 27.906 17.4652 31.3615C17.4652 32.0853 17.0872 33 15.9457 33C15.1927 33 14.5153 32.8229 13.7575 32.8229H12.0555C11.7362 32.8229 10.6039 32.4034 10.5292 32.1586C10.4601 31.9319 10.2928 31.8484 10.2928 31.5829V30.835C10.2928 29.8532 10.536 28.9205 10.536 27.9517V25.2061C10.536 24.8235 10.2928 24.4025 10.2928 23.9859V22.682C10.2928 21.8665 10.1713 21.0962 10.1713 20.2907C10.1713 20.0845 10.1298 19.7233 10.0227 19.5379C9.92763 19.3734 10.0336 18.9262 9.86735 18.8293C9.64803 18.7015 9.685 18.0651 9.685 17.8551Z" fill="#2CA40B"/>
<path d="M16.5535 2.7988C16.1588 1.99368 15.3258 1.16398 14.0614 1.03239C12.8299 0.904214 11.6129 1.14816 10.9952 1.91313C10.6952 2.28475 10.6575 2.90642 10.6575 3.34988C10.6575 4.05185 10.6575 4.75382 10.6575 5.45579C10.6575 6.56373 10.9007 7.63695 10.9007 8.73768C10.9007 9.14748 10.8407 9.50422 10.9952 9.88412C11.1169 10.1832 11.2654 10.5508 11.2654 10.8633C11.2654 11.48 11.3153 12.0819 11.0222 12.669C10.7662 13.1819 10.0181 13.2082 9.56343 12.8954C9.17052 12.625 8.767 12.2761 8.49635 11.9212C7.76595 10.9633 7.36655 10.6767 6.08162 9.19938C3.27813 6.96143 2.19292 7.52202 1.75958 7.83773C0.888375 8.47244 0.708268 9.88412 1.52595 11.0552C3.16132 12.5184 3.5976 13.0539 4.48467 14.1156C5.63782 15.4958 7.34983 17.8268 9.685 17.8551C9.685 18.0651 9.64803 18.7015 9.86735 18.8293C10.0336 18.9262 9.92763 19.3734 10.0227 19.5379C10.1298 19.7233 10.1713 20.0845 10.1713 20.2907C10.1713 21.0962 10.2928 21.8665 10.2928 22.682C10.2928 23.1166 10.2928 23.5513 10.2928 23.9859C10.2928 24.4025 10.536 24.8235 10.536 25.2061C10.536 26.1213 10.536 27.0365 10.536 27.9517C10.536 28.9205 10.2928 29.8532 10.2928 30.835C10.2928 31.0843 10.2928 31.3336 10.2928 31.5829C10.2928 31.8484 10.4601 31.9319 10.5292 32.1586C10.6039 32.4034 11.7362 32.8229 12.0555 32.8229C12.6229 32.8229 13.1902 32.8229 13.7575 32.8229C14.5153 32.8229 15.1927 33 15.9457 33C17.0872 33 17.4652 32.0853 17.4652 31.3615C17.4652 27.906 17.5868 24.4955 17.5868 21.0435C17.5868 19.8692 17.5868 18.6949 17.5868 17.5205C17.5868 16.5218 18.2631 15.9203 19.5319 15.6213C19.7896 15.5605 19.965 15.3678 20.2545 15.2867C20.4606 15.2289 20.6664 15.1679 20.8691 15.1046C21.1885 15.0049 21.4214 14.8565 21.7201 14.7356C22.1126 14.5767 22.646 14.3549 22.9087 14.1156C23.011 14.0225 23.2168 13.7433 23.253 13.6247C23.3255 13.3869 23.5436 13.3063 23.5436 13.029C23.6651 12.8519 23.9214 11.7632 23.9214 11.4972C23.9214 11.2617 23.8902 11.8792 23.9082 11.6555C23.9912 10.6284 24.1661 9.1432 23.5976 8.19644C23.1712 7.48637 22.7842 5.98729 21.531 5.72641C20.8865 5.59227 20.2322 5.72478 19.802 6.00688C19.4277 6.25233 19.517 6.63145 19.3157 6.96143C19.0951 7.32316 19.2887 8.00232 19.2887 8.39817C19.2887 8.89994 19.1672 9.41571 19.1672 9.88412C19.1672 10.102 19.1072 10.6605 18.924 10.819C18.8147 10.9136 18.3469 11.9212 18.3469 11.4972C18.3469 11.7954 18.3469 11.9212 17.9515 11.0552C17.58 9.62489 17.58 9.78766 17.58 9.62489C17.58 8.52189 18.02 11.91 17.8898 10.819C17.788 9.96623 16.5535 3.65597 16.5535 2.7988ZM16.5535 2.7988C16.7053 3.10853 16.7181 3.49506 16.8304 3.82223C16.9271 4.10415 16.5535 2.51019 16.5535 2.7988Z" stroke="black" stroke-width="1.57627" stroke-linecap="round" stroke-dasharray="3.15 3.15"/>
</svg>
