<svg width="258" height="361" viewBox="0 0 258 361" fill="none" xmlns="http://www.w3.org/2000/svg">
<g clip-path="url(#clip0_141_200)">
<rect width="258" height="361" fill="url(#paint0_linear_141_200)"/>
<path d="M131.646 313.072C140.068 323.642 150.441 331.359 160.355 340.138C159.305 336.608 155.205 326.551 153.404 323.382C151.082 319.295 147.142 316.78 143.94 313.477C139.697 309.101 135.784 304.706 131.267 300.631C130.418 299.865 121.327 292.436 121.331 294.033C121.334 295.954 122.464 299.439 123.312 301.072C125.407 305.104 128.85 309.563 131.646 313.072Z" fill="#35BA42"/>
<path d="M160.355 340.138C150.441 331.359 140.068 323.642 131.646 313.072C128.85 309.563 125.407 305.104 123.312 301.072C122.464 299.439 121.334 295.954 121.331 294.033C121.327 292.436 130.418 299.865 131.267 300.631C135.784 304.706 139.697 309.101 143.94 313.477C147.142 316.78 151.082 319.295 153.404 323.382C155.205 326.551 159.305 336.608 160.355 340.138ZM160.355 340.138C160.818 341.697 159.698 335.667 160.132 337.282" stroke="black" stroke-width="3" stroke-linecap="round" stroke-dasharray="6 6"/>
<path d="M143.686 297.133C147.149 310.025 153.474 326.174 159.064 338.325C163.248 335.37 160.303 322.869 159.322 319.217C157.679 313.102 155.644 307.14 153.911 301.084C152.777 297.119 151.542 293.081 149.907 289.301C148.721 286.558 146.973 284.586 145.596 282.06C142.95 277.202 142.194 283.659 142.343 286.113C142.572 289.889 142.68 293.388 143.686 297.133Z" fill="#35BA42" stroke="black" stroke-width="3" stroke-linecap="round" stroke-dasharray="6 6"/>
<path d="M166.504 324.059C165.129 327.82 161.567 331.952 160.855 335.911C159.076 329.287 160.513 321.887 161.255 315.405C162.247 306.729 169.132 298.766 174.307 292.456C176.482 289.805 177.426 287.948 180.758 287.03C181.468 286.834 179.44 291.187 179.069 292.187C177.239 297.12 175.002 302.068 172.866 306.863C170.379 312.446 168.607 318.309 166.504 324.059Z" fill="#35BA42" stroke="black" stroke-width="3" stroke-linecap="round" stroke-dasharray="6 6"/>
<path d="M312.5 347.5C312.5 347.789 312.375 348.212 311.849 348.79C311.314 349.376 310.447 350.027 309.179 350.717C306.646 352.096 302.814 353.472 297.744 354.807C287.628 357.472 272.921 359.886 254.67 361.919C218.185 365.983 167.743 368.5 112 368.5C56.2567 368.5 5.81472 365.983 -30.6695 361.919C-48.9214 359.886 -63.6276 357.472 -73.7438 354.807C-78.8138 353.472 -82.6459 352.096 -85.1789 350.717C-86.4468 350.027 -87.3144 349.376 -87.8487 348.79C-88.3755 348.212 -88.5 347.789 -88.5 347.5C-88.5 347.211 -88.3755 346.788 -87.8487 346.21C-87.3144 345.624 -86.4468 344.973 -85.1789 344.283C-82.6459 342.904 -78.8138 341.528 -73.7438 340.193C-63.6276 337.528 -48.9214 335.114 -30.6695 333.081C5.81472 329.017 56.2567 326.5 112 326.5C167.743 326.5 218.185 329.017 254.67 333.081C272.921 335.114 287.628 337.528 297.744 340.193C302.814 341.528 306.646 342.904 309.179 344.283C310.447 344.973 311.314 345.624 311.849 346.21C312.375 346.788 312.5 347.211 312.5 347.5Z" fill="#F79C4C" stroke="black" stroke-width="3"/>
</g>
<path d="M168.213 213.796C157.318 213.547 149.33 193.031 143.95 180.882C139.812 171.537 137.776 166.823 130.146 153.944C126.331 143.637 127.172 131.212 131.236 125.625C133.258 122.846 138.321 117.912 151.401 137.61C157.396 150.614 159.259 153.136 162.667 161.567C163.93 164.691 165.812 167.762 167.645 170.142C169.767 172.895 173.257 172.664 174.452 168.149C175.819 162.982 175.586 157.684 175.586 152.255C175.586 149.505 174.893 146.27 174.325 143.637C173.605 140.293 173.884 137.153 173.884 133.546C173.884 123.858 172.75 114.411 172.75 104.659V86.1235C172.75 82.2202 172.926 76.7484 174.325 73.4774C177.207 66.7443 182.885 64.5971 188.631 65.7252C194.53 66.8835 198.417 74.1864 200.258 81.2729C200.258 78.7326 202.001 92.7625 201.55 90.2811C201.026 87.4013 200.966 83.9992 200.258 81.2729C200.258 88.8176 206.017 144.36 206.492 151.866C206.583 152.512 206.679 153.204 206.78 153.944C208.625 161.567 208.625 160.46 208.625 157.835C208.625 161.567 210.808 152.698 211.318 151.866C212.172 150.471 212.452 145.554 212.452 143.637C212.452 139.514 213.019 134.974 213.019 130.558C213.019 127.074 212.116 121.096 213.145 117.912C214.085 115.007 213.668 111.67 215.414 109.51C217.421 107.027 220.474 105.861 223.481 107.041C229.328 109.338 231.133 122.532 233.122 128.782C235.642 136.696 235.032 148.885 234.633 157.835C234.633 158.126 234.615 158.529 234.581 159.015C234.578 159.086 234.575 159.157 234.572 159.228C234.549 159.774 234.543 159.751 234.547 159.476C234.262 163.068 233.346 170.011 232.87 171.318C232.87 173.758 231.853 174.468 231.515 176.561C231.346 177.605 230.386 180.063 229.909 180.882C228.683 182.988 226.194 184.94 224.363 186.339C222.969 187.403 221.883 188.709 220.393 189.587C219.447 190.144 218.487 190.681 217.525 191.19C216.175 191.903 215.356 193.6 214.154 194.134C208.234 196.767 205.079 202.061 205.079 210.852V241.86C205.079 272.244 204.512 302.263 204.512 332.678C204.512 339.049 202.748 347.1 197.422 347.1C193.909 347.1 190.749 345.54 187.213 345.54H179.273C177.782 345.54 172.5 341.848 172.151 339.694C171.829 337.698 171.048 336.963 171.048 334.627V328.044C171.048 319.402 172.183 311.193 172.183 302.665V278.499C172.183 275.131 171.048 271.426 171.048 267.759V256.282C171.048 249.104 170.481 242.324 170.481 235.234C170.481 233.419 170.288 230.24 169.788 228.608C169.345 227.16 169.839 223.224 169.063 222.372C168.04 221.246 168.213 215.645 168.213 213.796Z" fill="#2CA40B"/>
<path d="M200.258 81.2729C198.417 74.1864 194.53 66.8835 188.631 65.7252C182.885 64.5971 177.207 66.7443 174.325 73.4774C172.926 76.7484 172.75 82.2202 172.75 86.1235C172.75 92.3021 172.75 98.4808 172.75 104.659C172.75 114.411 173.884 123.858 173.884 133.546C173.884 137.153 173.605 140.293 174.325 143.637C174.893 146.27 175.586 149.505 175.586 152.255C175.586 157.684 175.819 162.982 174.452 168.149C173.257 172.664 169.767 172.895 167.645 170.142C165.812 167.762 163.93 164.691 162.667 161.567C159.259 153.136 157.396 150.614 151.401 137.61C138.321 117.912 133.258 122.846 131.236 125.625C127.172 131.212 126.331 143.637 130.146 153.944C137.776 166.823 139.812 171.537 143.95 180.882C149.33 193.031 157.318 213.547 168.213 213.796C168.213 215.645 168.04 221.246 169.063 222.372C169.839 223.224 169.345 227.16 169.788 228.608C170.288 230.24 170.481 233.419 170.481 235.234C170.481 242.324 171.048 249.104 171.048 256.282C171.048 260.108 171.048 263.933 171.048 267.759C171.048 271.426 172.183 275.131 172.183 278.499C172.183 286.555 172.183 294.61 172.183 302.665C172.183 311.193 171.048 319.402 171.048 328.044C171.048 330.238 171.048 332.432 171.048 334.627C171.048 336.963 171.829 337.698 172.151 339.694C172.5 341.848 177.782 345.54 179.273 345.54C181.919 345.54 184.566 345.54 187.213 345.54C190.749 345.54 193.909 347.1 197.422 347.1C202.748 347.1 204.512 339.049 204.512 332.678C204.512 302.263 205.079 272.244 205.079 241.86C205.079 231.524 205.079 221.188 205.079 210.852C205.079 202.061 208.234 196.767 214.154 194.134C215.356 193.6 216.175 191.903 217.525 191.19C218.487 190.681 219.447 190.144 220.393 189.587C221.883 188.709 222.969 187.403 224.363 186.339C226.194 184.941 228.683 182.988 229.909 180.882C230.386 180.063 231.346 177.605 231.515 176.561C231.853 174.468 232.87 173.758 232.87 171.318C233.438 169.759 234.633 160.176 234.633 157.835C234.633 155.762 234.488 161.197 234.572 159.228C234.959 150.188 235.775 137.115 233.122 128.782C231.133 122.532 229.328 109.338 223.481 107.041C220.474 105.861 217.421 107.027 215.414 109.51C213.668 111.67 214.085 115.007 213.145 117.912C212.116 121.096 213.019 127.074 213.019 130.558C213.019 134.974 212.452 139.514 212.452 143.637C212.452 145.554 212.172 150.471 211.318 151.866C210.808 152.698 208.625 161.567 208.625 157.835C208.625 160.46 208.625 161.567 206.78 153.944C205.047 141.355 205.047 142.788 205.047 141.355C205.047 131.647 207.1 161.469 206.492 151.866C206.017 144.36 200.258 88.8176 200.258 81.2729ZM200.258 81.2729C200.966 83.9992 201.026 87.4013 201.55 90.2811C202.001 92.7625 200.258 78.7326 200.258 81.2729Z" stroke="black" stroke-width="3" stroke-linecap="round" stroke-dasharray="6 6"/>
<path d="M152.618 228.942C152.618 224.611 151.821 211.004 151.821 206.706C151.821 200.807 152.618 201.206 152.618 195.37C152.618 192.721 152.982 189.114 151.821 186.813C151.123 185.431 146.182 185.805 144.795 185.881C142.277 186.019 139.586 187.095 137.915 188.75C136.281 190.368 136.973 193.915 136.973 196.21V209.758V230.57C136.973 233.344 133.288 237.499 133.799 240.278C134.219 242.567 139.849 245.766 142.55 246.53C149.028 248.363 154.058 242.024 154.568 237.226C154.978 233.37 152.618 232.925 152.618 228.942Z" fill="#E1B1A4" stroke="black" stroke-width="3" stroke-linecap="round"/>
<path d="M22.6745 115.163C24.7135 118.976 24.9213 134.713 26.9447 138.496C30.3083 143.58 29.955 143.943 32.7029 149.081C33.95 151.413 35.3096 154.772 37.4723 156.211C38.7724 157.076 43.1908 154.251 44.4441 153.484C46.7204 152.09 48.7164 149.785 49.4913 147.484C50.2486 145.234 50.9223 145.295 49.8417 143.275C47.365 138.644 42.7157 130.721 42.7157 130.721L37.5154 114.23C37.5154 114.23 35.9273 104.758 34.1442 102.569C32.6759 100.766 26.8532 98.7769 23.9813 99.4682C17.0948 101.126 20.8897 110.682 22.6745 115.163Z" fill="#E1B1A4"/>
<path d="M22.6745 115.163C24.7135 118.976 24.9213 134.713 26.9447 138.496C30.3083 143.58 29.955 143.943 32.7029 149.081C33.95 151.413 35.3096 154.772 37.4723 156.211C38.7724 157.076 43.1908 154.251 44.4441 153.484C46.7204 152.09 48.7164 149.785 49.4913 147.484C50.2486 145.234 50.9223 145.295 49.8417 143.275C47.365 138.644 42.7157 130.721 42.7157 130.721L37.5154 114.23C37.5154 114.23 35.9273 104.758 34.1442 102.569C32.6759 100.766 26.8532 98.7769 23.9813 99.4682C17.0948 101.126 20.8897 110.682 22.6745 115.163ZM22.6745 115.163C20.7994 111.657 24.1089 118.765 22.6745 115.163Z" stroke="black" stroke-width="3" stroke-linecap="round"/>
<path d="M84.4231 137.356V126.998C86.1263 126.553 91.528 126.643 93.195 126.009C96.944 124.582 108.364 123.023 108.364 129.409C108.364 131.287 108.214 133.222 108.395 135.094C108.542 136.61 109.301 137.713 107.255 137.713C102.512 137.713 97.8935 138.152 93.195 138.755C90.4619 139.105 84.4231 141.006 84.4231 137.356Z" fill="#C9A196" stroke="black" stroke-width="3" stroke-linecap="round"/>
<path d="M130.581 330.842C129.31 330.649 130.074 331.713 128.771 331.975C126.457 331.791 123.498 332.442 121.515 332.178C118.61 331.792 115.164 332.895 112.228 333.485C111.149 333.702 110.803 334.643 110.574 335.432C110.31 336.341 109.885 336.861 109.432 337.724C108.634 339.247 108.422 345.75 109.812 346.975C111.408 347.92 114.139 348.283 116.735 348.283L121.515 348.283C126.254 348.283 138.532 348.422 143.562 347.411C145.625 346.996 145.734 343.813 146.591 342.179C147.373 340.687 144.245 339.141 143.562 337.724C143.132 336.833 139.546 336.331 138.37 336.074C136.996 335.775 136.24 333.88 135.322 332.967C134.709 332.357 131.46 330.976 130.581 330.842Z" fill="#D9D9D9"/>
<path d="M109.812 346.975C111.408 347.92 114.139 348.283 116.735 348.283C116.735 348.283 119.331 348.283 121.515 348.283C126.254 348.283 138.532 348.422 143.562 347.411C145.625 346.996 145.734 343.813 146.591 342.179C147.373 340.687 144.245 339.141 143.562 337.724C143.132 336.833 139.546 336.331 138.37 336.074C136.996 335.775 136.24 333.88 135.322 332.967C134.709 332.357 131.46 330.976 130.581 330.842C129.31 330.649 130.074 331.713 128.771 331.975C126.457 331.791 123.498 332.442 121.515 332.178C118.61 331.792 115.164 332.895 112.228 333.485C111.149 333.702 110.803 334.643 110.574 335.432C110.31 336.341 109.885 336.861 109.432 337.724C108.634 339.247 108.422 345.75 109.812 346.975ZM109.812 346.975C108.492 346.192 110.911 347.943 109.812 346.975Z" stroke="black" stroke-width="3" stroke-linecap="round"/>
<path d="M67.1154 330.095C68.3863 329.902 67.6221 330.966 68.926 331.228C71.2397 331.044 74.1987 331.695 76.182 331.431C79.0867 331.045 82.5327 332.148 85.4686 332.738C86.5476 332.955 86.894 333.896 87.1228 334.685C87.3864 335.593 87.8115 336.114 88.2641 336.977C89.0622 338.499 89.2744 345.003 87.8846 346.228C86.2889 347.173 83.5577 347.536 80.9615 347.536L76.182 347.536C71.4423 347.536 59.1642 347.675 54.1346 346.664C52.0712 346.249 51.9625 343.066 51.1058 341.432C50.3237 339.94 53.4511 338.394 54.1346 336.977C54.5645 336.086 58.1507 335.584 59.3269 335.327C60.7004 335.028 61.4567 333.133 62.3747 332.22C62.9877 331.61 66.2365 330.229 67.1154 330.095Z" fill="#D9D9D9"/>
<path d="M87.8846 346.228C86.2889 347.173 83.5577 347.536 80.9615 347.536C80.9615 347.536 78.3654 347.536 76.182 347.536C71.4423 347.536 59.1642 347.675 54.1346 346.664C52.0712 346.249 51.9625 343.066 51.1058 341.432C50.3237 339.94 53.4511 338.394 54.1346 336.977C54.5645 336.086 58.1507 335.584 59.3269 335.327C60.7004 335.028 61.4567 333.133 62.3747 332.22C62.9877 331.61 66.2365 330.229 67.1154 330.095C68.3863 329.902 67.6221 330.966 68.926 331.228C71.2397 331.044 74.1987 331.695 76.182 331.431C79.0867 331.045 82.5327 332.148 85.4686 332.738C86.5476 332.955 86.894 333.896 87.1228 334.685C87.3864 335.593 87.8115 336.114 88.2641 336.977C89.0622 338.499 89.2744 345.003 87.8846 346.228ZM87.8846 346.228C89.2045 345.445 86.7854 347.196 87.8846 346.228Z" stroke="black" stroke-width="3" stroke-linecap="round"/>
<path d="M67.1105 329.128C67.1105 325.912 66.0697 322.897 65.9791 319.772C66.5266 319.146 65.2121 318.305 65.404 317.514C65.7597 316.05 72.1543 316.743 73.3043 316.743C78.8575 316.743 84.0877 315.472 85.1864 320.405C85.9922 324.024 87.0192 327.838 87.0192 331.489C87.0192 334.176 77.4352 332.79 75.074 332.79C73.7381 332.79 66.7668 333.614 66.9841 331.682C67.0802 330.827 67.1105 329.99 67.1105 329.128Z" fill="#E1B1A4"/>
<path d="M65.9728 319.345C65.9728 322.623 67.1105 325.766 67.1105 329.128C67.1105 329.99 67.0802 330.827 66.9841 331.682C66.7668 333.614 73.7381 332.79 75.074 332.79C77.4352 332.79 87.0192 334.176 87.0192 331.489C87.0192 327.838 85.9922 324.024 85.1864 320.405C84.0877 315.472 78.8575 316.743 73.3043 316.743C72.1543 316.743 65.7597 316.05 65.404 317.514C65.2121 318.305 66.5266 319.146 65.9791 319.772" stroke="#030303" stroke-width="3" stroke-linecap="round"/>
<path d="M67.1105 329.128C67.1105 325.912 66.0697 322.897 65.9791 319.772C66.5266 319.146 65.2121 318.305 65.404 317.514C65.7597 316.05 72.1543 316.743 73.3043 316.743C78.8575 316.743 84.0877 315.472 85.1864 320.405C85.9922 324.024 87.0192 327.838 87.0192 331.489C87.0192 334.176 77.4352 332.79 75.074 332.79C73.7381 332.79 66.7668 333.614 66.9841 331.682C67.0802 330.827 67.1105 329.99 67.1105 329.128Z" fill="#E1B1A4"/>
<path d="M65.9728 319.345C65.9728 322.623 67.1105 325.766 67.1105 329.128C67.1105 329.99 67.0802 330.827 66.9841 331.682C66.7668 333.614 73.7381 332.79 75.074 332.79C77.4352 332.79 87.0192 334.176 87.0192 331.489C87.0192 327.838 85.9922 324.024 85.1864 320.405C84.0877 315.472 78.8575 316.743 73.3043 316.743C72.1543 316.743 65.7597 316.05 65.404 317.514C65.2121 318.305 66.5266 319.146 65.9791 319.772" stroke="#030303" stroke-width="3" stroke-linecap="round"/>
<path d="M66.3611 236.575C66.2924 234.684 66.1637 231.142 66.7445 229.621L66.4083 225.101C66.3202 223.916 67.1638 223.654 67.1255 222.6C67.0377 220.178 66.7624 217.718 66.5824 215.299C66.0543 208.199 73.118 210.959 75.7298 210.762L81.5686 210.321C83.6549 210.163 85.706 211.407 87.7353 211.254L93.3496 210.829C95.5724 210.662 97.8061 211.891 99.9405 211.73C102.262 211.555 104.839 213.458 107.282 213.273C109.324 213.119 111.392 214.361 113.474 214.204C115.505 214.051 119.062 213.09 120.99 214.724C122.55 216.046 123.358 217.742 124.63 219.81C126.626 223.054 127.187 228.549 127.498 232.723C127.675 235.112 129.215 237.587 129.388 239.922C129.568 242.333 129.933 246.112 130.572 248.418C131.686 252.434 132.235 255.994 132.711 260.298C132.908 262.079 133.373 267.461 134.031 268.939C136.253 273.928 136.519 281.129 136.945 286.86C137.447 293.608 137.076 300.767 137.55 307.131C137.872 311.465 137.671 317.969 135.639 320.91C134.915 321.958 135.421 323.793 134.804 324.858C134.155 325.796 133.722 330.519 132.885 330.967C131.929 331.479 128.926 332.182 127.692 332.275C125.962 332.406 118.69 334.122 114.279 334.455C111.384 334.674 106.756 332.886 105.625 327.043C104.457 321.007 104.407 310.903 103.949 304.735L101.092 266.338L101.092 266.334C100.863 263.256 100.654 260.447 100.01 257.524C99.3324 254.449 99.2474 249.946 98.2082 247.133C97.6744 245.688 97.3199 239.915 97.6548 244.417C97.8193 246.628 97.6625 249.372 97.7488 251.752C97.7645 252.185 96.9763 253.684 96.8329 254.618C96.6434 255.851 96.4972 257.346 96.08 258.326C95.5114 259.662 95.4711 263.633 95.5877 265.2C95.9977 270.713 95.9325 275.204 95.3802 280.288C95.1734 282.191 95.2991 284.548 95.3802 286.528C95.3672 287.258 95.6801 295.304 95.5181 295.971C95.2638 297.019 95.0395 297.799 94.8268 298.821C94.1665 301.992 93.8371 305.191 92.9272 308.365C92.4648 309.977 92.1874 311.578 92.0474 313.403C92.0474 313.403 91.8922 318.738 92.0387 320.707C92.5207 327.186 88.6785 328.652 84.8726 328.94C79.6259 329.336 74.2943 327.907 69.4761 324.354C67.8324 323.142 65.9757 320.688 64.1879 320.053L64.1412 320.036C62.9616 319.618 60.7238 318.823 59.8245 317.391C58.7897 315.743 59.089 308.853 58.9057 306.39C58.6696 303.215 58.851 300.627 58.6968 297.51C58.594 295.431 59.235 292.776 59.3139 290.626C59.3714 289.057 59.1182 285.395 59.7265 284.03C60.465 282.373 60.811 278.717 60.7668 276.765C60.6658 272.301 62.634 267.573 62.9386 263.121C63.1946 259.379 63.9952 255.824 64.2405 251.952C64.4456 248.715 64.2336 245.584 65.0287 242.647C65.4916 240.937 66.4318 238.522 66.3635 236.642L66.3611 236.575Z" fill="#3563A8"/>
<path d="M95.3802 286.528C95.3672 287.258 95.6801 295.304 95.5181 295.971C95.2638 297.019 95.0395 297.799 94.8268 298.821C94.1665 301.992 93.8371 305.191 92.9272 308.365C92.4648 309.977 92.1874 311.578 92.0474 313.403C92.0474 313.403 91.8922 318.738 92.0387 320.707C92.5207 327.186 88.6785 328.652 84.8726 328.94C79.6259 329.336 74.2943 327.907 69.4761 324.354C67.8324 323.142 65.9757 320.688 64.1879 320.053C63.0216 319.639 60.7358 318.842 59.8245 317.391C58.7897 315.743 59.089 308.853 58.9057 306.39C58.6696 303.215 58.851 300.627 58.6968 297.51C58.594 295.431 59.235 292.776 59.3139 290.626C59.3714 289.057 59.1182 285.395 59.7265 284.03C60.465 282.373 60.811 278.717 60.7668 276.765C60.6658 272.301 62.634 267.573 62.9386 263.121C63.1946 259.379 63.9952 255.824 64.2405 251.952C64.4456 248.715 64.2336 245.584 65.0287 242.647C65.4916 240.937 66.4318 238.522 66.3635 236.642C66.2955 234.769 66.1567 231.16 66.7445 229.621C66.6325 228.114 66.5204 226.608 66.4083 225.101C66.3202 223.916 67.1638 223.654 67.1255 222.6C67.0377 220.178 66.7624 217.718 66.5824 215.299C66.0543 208.199 73.118 210.959 75.7298 210.762C77.676 210.615 79.6223 210.468 81.5686 210.321C83.6549 210.163 85.706 211.407 87.7353 211.254C89.6067 211.112 91.4782 210.971 93.3496 210.829C95.5724 210.662 97.8061 211.891 99.9405 211.73C102.262 211.555 104.839 213.458 107.282 213.273C109.324 213.119 111.392 214.361 113.474 214.204C115.505 214.051 119.062 213.09 120.99 214.724C122.55 216.046 123.358 217.742 124.63 219.81C126.626 223.054 127.187 228.549 127.498 232.723C127.675 235.112 129.215 237.587 129.388 239.922C129.568 242.333 129.933 246.112 130.572 248.418C131.686 252.434 132.235 255.994 132.711 260.298C132.908 262.079 133.373 267.461 134.031 268.939C136.253 273.928 136.519 281.129 136.945 286.86C137.447 293.608 137.076 300.767 137.55 307.131C137.872 311.465 137.671 317.969 135.639 320.91C134.915 321.958 135.421 323.793 134.804 324.858M95.3946 286.891C95.3159 284.842 95.1606 282.309 95.3802 280.288C95.9325 275.204 95.9977 270.713 95.5877 265.2C95.4711 263.633 95.5114 259.662 96.08 258.326C96.4972 257.346 96.6434 255.851 96.8329 254.618C96.9763 253.684 97.7645 252.185 97.7488 251.752C97.6625 249.372 97.8193 246.628 97.6548 244.417C97.3199 239.915 97.6744 245.688 98.2082 247.133C99.2474 249.946 99.3324 254.449 100.01 257.524C100.654 260.449 100.863 263.258 101.092 266.338C102.044 279.137 102.997 291.936 103.949 304.735C104.407 310.903 104.457 321.007 105.625 327.043C106.756 332.886 111.384 334.674 114.279 334.455C118.69 334.122 125.962 332.406 127.692 332.275C128.926 332.182 131.929 331.479 132.885 330.967C133.722 330.519 134.155 325.796 134.804 324.858M134.804 324.858C135.407 323.985 134.334 325.668 134.804 324.858Z" stroke="#030303" stroke-width="3" stroke-linecap="round"/>
<path d="M64.6496 89.4429C65.3127 89.4017 66.2059 89.7484 66.8341 89.5686C67.1358 89.5824 67.55 90.2474 67.8287 90.2752C68.5051 90.3427 68.788 90.7442 68.9132 91.36C69.2273 92.9048 69.2861 94.3943 69.5016 95.9371C69.6602 97.073 69.8337 98.1624 69.9537 99.303C69.9658 99.4175 70.1083 100.958 69.743 100.846C69.7314 100.843 69.721 100.838 69.7117 100.833C69.6846 100.978 69.6438 101.102 69.5671 101.273C69.387 101.676 69.5559 102.906 69.155 103.182C68.3781 103.716 67.323 103.797 66.4389 103.767C65.21 103.725 63.8215 103.982 62.7326 103.363C61.741 102.799 61.3996 101.835 60.9928 100.848C60.4998 99.6507 59.9761 98.5 59.7099 97.2262C59.5359 96.3935 59.6364 95.5504 59.5636 94.7095C59.5216 94.2245 59.3001 93.663 59.5554 93.1953C60.039 92.3097 60.246 90.8275 61.3193 90.3785C62.2906 89.9723 63.6109 89.5074 64.6496 89.4429Z" fill="#CA9F93"/>
<path d="M66.8341 89.5686C66.2059 89.7484 65.3127 89.4017 64.6496 89.4429C63.6109 89.5074 62.2906 89.9723 61.3193 90.3785C60.246 90.8275 60.039 92.3097 59.5554 93.1953C59.3001 93.663 59.5216 94.2245 59.5636 94.7095C59.6364 95.5504 59.5359 96.3935 59.7099 97.2262C59.9761 98.5 60.4998 99.6507 60.9928 100.848C61.3996 101.835 61.741 102.799 62.7326 103.363C63.8215 103.982 65.21 103.725 66.4389 103.767C67.323 103.797 68.3781 103.716 69.155 103.182C69.5559 102.906 69.387 101.676 69.5671 101.273C69.6887 101.002 69.7203 100.849 69.7496 100.542C69.7728 100.3 69.5039 100.773 69.743 100.846C70.1083 100.958 69.9658 99.4175 69.9537 99.303C69.8337 98.1624 69.6602 97.073 69.5016 95.9371C69.2861 94.3943 69.2273 92.9048 68.9132 91.36C68.788 90.7442 68.5051 90.3427 67.8287 90.2752C67.55 90.2474 67.1358 89.5824 66.8341 89.5686Z" stroke="black" stroke-width="3" stroke-linecap="round"/>
<path d="M126.687 88.8865C126.024 88.8454 125.131 89.192 124.503 89.0122C124.201 89.026 123.787 89.691 123.508 89.7188C122.832 89.7864 122.549 90.1878 122.424 90.8036C122.11 92.3484 122.051 93.8379 121.835 95.3807C121.677 96.5166 121.503 97.606 121.383 98.7466C121.371 98.8611 121.229 100.401 121.594 100.29C121.606 100.286 121.616 100.282 121.625 100.277C121.652 100.422 121.693 100.546 121.77 100.717C121.95 101.12 121.781 102.35 122.182 102.625C122.959 103.16 124.014 103.241 124.898 103.211C126.127 103.168 127.516 103.426 128.604 102.807C129.596 102.242 129.937 101.279 130.344 100.291C130.837 99.0943 131.361 97.9436 131.627 96.6698C131.801 95.8371 131.701 94.994 131.773 94.1531C131.815 93.6681 132.037 93.1066 131.782 92.6389C131.298 91.7533 131.091 90.2711 130.018 89.8221C129.046 89.4159 127.726 88.951 126.687 88.8865Z" fill="#CA9F93"/>
<path d="M124.503 89.0122C125.131 89.192 126.024 88.8454 126.687 88.8865C127.726 88.951 129.046 89.4159 130.018 89.8221C131.091 90.2711 131.298 91.7533 131.782 92.6389C132.037 93.1066 131.815 93.6681 131.773 94.1531C131.701 94.994 131.801 95.8371 131.627 96.6698C131.361 97.9436 130.837 99.0943 130.344 100.291C129.937 101.279 129.596 102.242 128.604 102.807C127.516 103.426 126.127 103.168 124.898 103.211C124.014 103.241 122.959 103.16 122.182 102.625C121.781 102.35 121.95 101.12 121.77 100.717C121.648 100.445 121.617 100.293 121.587 99.9858C121.564 99.7431 121.833 100.217 121.594 100.29C121.229 100.401 121.371 98.8611 121.383 98.7466C121.503 97.606 121.677 96.5166 121.835 95.3807C122.051 93.8379 122.11 92.3484 122.424 90.8036C122.549 90.1878 122.832 89.7864 123.508 89.7188C123.787 89.691 124.201 89.026 124.503 89.0122Z" stroke="black" stroke-width="3" stroke-linecap="round"/>
<path d="M67.3238 101.641C67.3238 95.2084 66.8548 87.116 67.324 80.706C68.0758 80.3636 68.7848 80.0021 69.7007 79.1679C70.8111 78.1567 71.9812 77.6063 73.2348 76.7183C74.6284 75.7312 76.2758 75.2478 77.7384 74.2118C79.0489 73.2835 81.7442 73.6744 82.9613 72.7876C85.3673 71.0346 89.9438 71.8762 92.9693 71.8762C95.3465 71.8762 101.645 70.9097 103.478 72.2749C105.852 74.0445 110.483 74.2077 113.235 74.9239C115.215 75.4389 116.434 76.0751 117.708 77.0032C119.089 78.0099 119.38 79.432 120.241 80.706C122.01 83.3237 120.938 77.8067 121.645 80.706C122.405 83.8201 124.182 95.7434 124.182 99.0494C124.182 105.361 124.939 111.301 120.499 116.356C120.114 116.793 118.239 119.016 118.239 119.016C116.988 120.583 117.469 119.757 116.988 120.583C116.286 121.792 115.068 122.619 114.049 123.431C111.569 125.408 109.392 126.745 106.73 128.786C98.8171 134.855 88.0154 130.348 80.8346 125.539C76.1817 122.423 71.2761 116.601 69.7007 111.221C68.3936 106.757 67.3238 106.453 67.3238 101.641Z" fill="#E1B1A4" stroke="black" stroke-width="3" stroke-linecap="round"/>
<path d="M73.9756 104.025C69.4188 101.516 70.7615 94.7176 70.7615 90.4254C72.8962 85.8627 85.9228 87.1483 89.8049 88.5154C90.9571 88.9212 90.287 93.5571 90.287 94.6683C90.287 95.6936 90.3503 96.9657 90.287 97.989C90.2166 99.127 90.4784 97.5547 90.287 99.0711C90.1344 100.281 84.6909 105.553 83.417 105.553C80.2569 105.553 76.8205 105.591 73.9756 104.025Z" stroke="black" stroke-width="3" stroke-linecap="round"/>
<path d="M116.505 104.025C121.062 101.516 119.719 94.7176 119.719 90.4254C117.585 85.8627 104.558 87.1483 100.676 88.5154C99.5237 88.9212 100.194 93.5571 100.194 94.6683C100.194 95.6936 100.13 96.9657 100.194 97.989C100.264 99.127 100.002 97.5547 100.194 99.0711C100.346 100.281 105.79 105.553 107.064 105.553C110.224 105.553 113.66 105.591 116.505 104.025Z" stroke="black" stroke-width="3" stroke-linecap="round"/>
<path d="M90.4808 94.2166H99.1346" stroke="black" stroke-width="3" stroke-linecap="round"/>
<path d="M94.8077 99.4487C94.8077 100.933 95.6731 102.324 95.6731 103.809" stroke="black" stroke-width="3" stroke-linecap="round"/>
<path d="M84.4231 111.657C87.4894 113.632 88.3872 115.879 92.2476 116.585C96.4328 117.351 101.397 116.943 102.596 112.114" stroke="black" stroke-width="3" stroke-linecap="round"/>
<path d="M81.1225 95.4917C81.1225 96.0878 80.6646 97.6977 81.2934 98.1598C81.6069 98.3903 82.5577 98.8326 82.6388 98.3822C82.8172 97.3913 82.5194 96.3621 82.1903 95.4027C81.9467 94.6924 81.5069 94.2214 81.5069 95.2397C81.5069 98.5247 82.5448 94.7297 81.8059 94.2169C81.7466 94.1757 82.6601 98.3715 82.6601 96.0253" stroke="black" stroke-width="3" stroke-linecap="round"/>
<path d="M107.084 95.4917C107.084 96.0878 106.626 97.6977 107.255 98.1598C107.568 98.3903 108.519 98.8326 108.6 98.3822C108.779 97.3913 108.481 96.3621 108.152 95.4027C107.908 94.6924 107.468 94.2214 107.468 95.2397C107.468 98.5247 108.506 94.7297 107.767 94.2169C107.708 94.1757 108.622 98.3715 108.622 96.0253" stroke="black" stroke-width="3" stroke-linecap="round"/>
<path d="M63.6543 69.931C63.5899 72.2196 69.9191 70.7375 72.2684 70.7375C73.9194 70.7375 75.1412 72.2384 76.7922 72.2384C79.2532 72.2384 81.5472 73.1357 84.0364 73.1357C88.0875 73.1357 92.12 74.0329 96.2014 74.0329C97.8983 74.0329 99.5237 74.636 101.171 74.897C102.962 75.1807 104.99 74.9302 106.801 74.9302C108.828 74.9302 111.104 74.863 113.078 74.3985C114.272 74.1173 114.555 74.3985 116.905 74.897C118.471 74.7699 121.362 75.3977 121.603 74.033C121.963 71.997 119.124 62.8977 118.015 61.1722C116.905 59.4466 116.464 58.3318 115.917 57.0514C114.555 55.4142 112.756 54.3861 111.158 53.2463C108.875 51.6186 105.399 50.865 102.784 50.1724C100.106 49.4631 98.4642 48.6617 95.7611 48.1555C94.5979 47.9377 92.919 48.0123 91.6032 48.0123H89.1186C88.5625 48.0123 86.8053 48.611 86.364 48.9622C85.469 49.6745 81.8983 51.5529 80.8823 52.1882C78.6065 53.6112 79.285 52.9739 77.0665 54.4427C75.2391 55.6525 69.6681 59.6188 69.1359 61.8661C68.7539 63.4791 63.706 68.0968 63.6543 69.931Z" fill="#AE7856" stroke="#040404" stroke-width="3" stroke-linecap="round"/>
<path d="M79.0356 67.3603L79.1621 67.3485C81.1862 67.3485 80.7448 67.1908 82.7714 67.1908C85.4902 67.1908 88.2896 67.1341 90.9935 67.3573C93.3873 67.5549 95.8293 67.8218 98.1927 68.216C102.654 68.96 107.274 69.1826 111.78 69.5917C113.631 69.7598 115.817 69.5681 117.59 70.0649C119.381 70.5667 121.277 70.7292 123.11 71.134C126.435 71.8683 129.849 72.2907 133.002 73.5788L133.098 73.6182C134.076 74.0176 135.026 74.4059 135.964 74.8318C136.508 75.0785 136.312 75.7579 136.312 76.2601C136.312 77.1598 134.765 78.1434 134.179 78.7575C133.695 79.2643 133.01 79.7052 132.278 79.8966C131.022 80.2253 129.41 80.1245 128.109 80.1245C125.545 80.1245 122.988 79.9667 120.427 79.9667C116.259 79.9667 112.102 79.809 107.93 79.809C103.823 79.809 99.7278 79.6513 95.6161 79.6513H89.131C86.0912 79.6513 83.0954 79.9003 80.0693 79.9667C78.001 80.0122 75.6097 79.8683 73.5649 80.1595C72.7444 80.2764 71.9811 80.3024 71.1523 80.2033C69.4005 79.994 67.5688 80.1245 65.806 80.1245C63.0586 80.1245 60.2683 80.3149 57.6804 79.3358C56.7652 78.9896 55.9685 78.3836 55.1906 77.8287C53.7323 76.7883 53.917 74.9972 54.9397 73.8153C55.3351 73.3583 56.0326 73.0704 56.6188 72.8865C58.2614 72.3713 59.9068 71.9054 61.5888 71.5108C63.8505 70.98 66.0354 70.2355 68.18 69.399C71.64 68.0493 75.3213 67.7064 79.0356 67.3603Z" fill="#AE7856" stroke="#040404" stroke-width="3" stroke-linecap="round"/>
<path d="M67.8114 81.3087C67.6177 81.5473 66.6372 84.2447 67.4048 84.2447C69.0159 84.2447 70.6405 82.5888 71.606 81.616C72.6809 80.5328 73.1047 82.0079 72.0125 81.9232C71.1325 81.855 69.9458 79.1058 69.9458 80.8478C69.9458 81.4091 69.0683 83.4444 70.1491 83.2888C71.4532 83.1011 72.7275 82.681 73.9098 82.0939C74.5751 81.7636 75.372 80.8531 75.4345 81.9232C75.4705 82.5402 75.9833 81.9272 76.0274 81.616C76.0834 81.2207 75.8319 80.1387 76.1121 80.4211C76.6448 80.9578 76.5362 83.4006 77.7214 83.1352C78.6048 82.9374 78.5387 81.616 79.263 81.616C80.852 81.616 80.0168 81.8251 80.6351 80.2674C80.6654 80.1913 81.4743 81.5712 81.6007 81.7525C82.0002 82.3253 82.6144 83.6985 83.4642 83.6985C84.2799 83.6985 83.3844 80.0076 84.7516 81.3087C85.2001 81.7356 86.2052 82.488 86.4118 81.3087C86.5792 80.3527 88.5132 83.4947 88.8512 83.9204C88.9891 84.0941 89.461 81.3078 89.461 80.7113C89.461 79.2357 90.9856 82.3583 90.9856 83.1523" stroke="#030303" stroke-width="3" stroke-linecap="round"/>
<path d="M92.229 81.2159C92.2439 81.9667 92.5 84.203 92.5 83.4521C92.5 83.1081 92.0658 82.6559 92.2628 82.3084C92.3904 82.0835 94.4895 81.4868 94.6006 81.6597C94.9103 82.142 95.5831 84.5687 95.5831 82.94C95.5831 82.7543 95.5568 81.1715 95.7525 81.2842C96.5448 81.7404 96.1451 83.8735 97.1078 83.9813C97.84 84.0632 98.6324 83.3398 98.6324 82.5986C98.6324 81.7389 98.7211 83.8932 98.6324 82.8205C98.5856 82.2551 96.8852 81.5232 97.6498 81.5232C97.9998 81.5232 98.4083 81.4635 98.751 81.5402C99.0339 81.6036 98.8339 82.1036 99.0898 82.1036C99.3232 82.1036 99.6576 81.1531 99.9198 80.9769C100.136 80.8314 100.29 81.7355 100.326 81.8304C100.576 82.4776 100.997 83.3227 101.529 83.7764C102.39 84.5105 102.901 83.3219 102.901 82.5986C102.901 82.1935 103.508 81.4043 103.443 81.4549C102.931 81.8566 102.332 81.031 102.003 80.755C101.128 80.0194 103.737 80.3162 104.053 80.3624C105.568 80.5839 106.173 80.7275 106.256 82.1377C106.292 82.7701 107.173 82.2966 106.831 81.6939C106.465 81.0468 105.18 82.3993 105.951 82.445C106.907 82.5016 106.372 81.5573 105.815 81.5573C105.402 81.5573 106.011 82.4766 106.137 82.5644C106.944 83.1273 108.859 82.7522 109.762 82.7522C110.972 82.7522 112.346 82.93 113.54 82.6839C114.051 82.5786 113.611 82.1524 113.574 81.8304C113.531 81.4669 112.973 81.0197 112.642 80.9087C111.614 80.5633 111.387 80.1478 110.152 80.3624C108.05 80.7276 109.003 82.25 109.915 81.1476C111.715 78.9703 111.708 82.8724 113.269 81.3866C115.773 79.0039 113.867 83.3711 115.657 82.6839C116.696 82.2852 118.355 80.4653 118.452 82.1377C118.47 82.4298 119.599 82.8722 119.825 83.5545C119.927 83.8627 120.892 87.2044 120.892 85.8248C120.892 85.3762 120.857 84.1827 121.197 85.2103" stroke="#030303" stroke-width="3" stroke-linecap="round"/>
<path d="M79.8922 79.8409C81.4758 79.9296 82.6457 80.6321 84.2289 80.0799C85.0942 79.7781 85.9285 79.8409 86.8377 79.8409C88.1817 79.8409 89.5256 79.8409 90.8695 79.8409C92.9548 79.8409 91.767 79.4812 90.0903 79.7043C85.556 80.3078 81.1033 79.8409 76.538 79.8409" stroke="#030303" stroke-width="3" stroke-linecap="round"/>
<path d="M74.1118 82.0583C74.1118 83.3272 73.5566 85.3785 75.5009 84.687C76.8509 84.2069 78.0758 82.5333 78.0758 81.1365" stroke="#030303" stroke-width="3" stroke-linecap="round"/>
<path d="M116.178 82.2987C116.787 82.9801 117.592 83.6692 118.618 83.1522C119.305 82.806 119.6 81.377 118.55 81.377C116.452 81.377 115.367 84.4495 117.703 84.4495" stroke="#030303" stroke-width="3" stroke-linecap="round"/>
<path d="M68.0002 83.835C68.414 85.5553 69.4334 87.399 68.61 89.0584" stroke="#030303" stroke-width="3" stroke-linecap="round"/>
<path d="M73.7937 82.2988H74.0986" stroke="#030303" stroke-width="3" stroke-linecap="round"/>
<path d="M69.1068 88.5898C69.6475 88.7431 70.1434 88.9593 70.6236 89.2012" stroke="#030303" stroke-width="3" stroke-linecap="round"/>
<path d="M120.68 89.8127C120.68 88.8989 120.4 87.8141 121.287 87.3672" stroke="#030303" stroke-width="3" stroke-linecap="round"/>
<path d="M91.9643 234.633C81.7822 234.633 63.5527 242.753 59.499 234.132C59.499 227.713 63.7137 206.547 63.7137 200.38C65.5333 182.751 66.4073 180.114 63.7137 174.386C63.3184 173.545 63.1 172.756 61.9231 172.261C59.0851 171.069 45.3421 165.232 43.0421 163.541C40.9473 162.976 35.3622 157.345 33.1679 153.715C31.316 150.652 27.2037 149.961 29.9038 147.409C31.7283 145.685 34.3636 143.345 43.0421 140.753C51.7205 138.16 48.009 134.289 53.7019 140.753C58.0288 145.665 63.2212 137.123 71.875 135.296C80.5288 133.47 74.6787 133.978 78.7981 133.457C82.9175 132.936 88.75 139.125 100.274 137.123C111.798 135.12 112.855 130.485 115.764 135.296C117.958 137.284 126.195 137.159 133.276 140.753C140.358 144.346 148.476 160.438 148.476 160.438L155.115 173.382C164.409 186.764 142.342 193.352 134.756 187.56C130.813 184.55 136.388 179.581 133.276 175.905C132.67 174.901 132.599 174.155 132.637 173.761C132.475 174.127 132.07 174.822 131.154 175.905C128.283 179.297 133.276 204.01 133.276 204.01C133.983 209.195 138.808 228.181 138.808 228.181C138.304 231.996 133.276 234.132 133.276 234.132C132.589 235.92 124.948 233.362 123.154 234.132C119.765 235.589 114.179 234.633 110.561 234.633H91.9643Z" fill="white"/>
<path d="M59.499 234.132C63.5527 242.753 81.7822 234.633 91.9643 234.633C98.163 234.633 104.362 234.633 110.561 234.633C114.179 234.633 119.765 235.589 123.154 234.132C124.948 233.362 132.589 235.92 133.276 234.132C133.276 234.132 138.304 231.996 138.808 228.181C138.808 228.181 133.983 209.195 133.276 204.01C133.276 204.01 128.283 179.297 131.154 175.905C134.24 172.258 131.525 173.007 133.276 175.905C136.388 179.581 130.813 184.55 134.756 187.56C142.342 193.352 164.409 186.764 155.115 173.382L148.476 160.438C148.476 160.438 140.358 144.346 133.276 140.753C126.195 137.159 117.958 137.284 115.764 135.296C112.855 130.485 111.798 135.12 100.274 137.123C88.75 139.125 82.9175 132.936 78.7981 133.457C74.6787 133.978 80.5288 133.47 71.875 135.296C63.2212 137.123 58.0288 145.665 53.7019 140.753C48.009 134.289 51.7205 138.16 43.0421 140.753C34.3636 143.345 31.7283 145.685 29.9038 147.409C27.2037 149.961 31.316 150.652 33.1679 153.715C35.3622 157.345 40.9473 162.976 43.0421 163.541C45.3421 165.232 59.0851 171.069 61.9231 172.261C63.1 172.756 63.3184 173.545 63.7137 174.386C66.4073 180.114 65.5333 182.751 63.7137 200.38C63.7137 206.547 59.499 227.713 59.499 234.132Z" stroke="#030303" stroke-width="3" stroke-linecap="round"/>
<path d="M18.9406 107.967C17.7362 107.128 17.2661 105.603 16.4266 104.32C15.8589 103.451 15.0859 102.019 14.958 100.908C14.8506 99.9754 14.7023 98.9826 14.6903 98.0439C14.6761 96.9286 14.7147 95.6642 15.2005 94.9167C16.682 92.6371 19.8229 98.6775 20.3392 99.9922C20.4966 100.393 20.9276 101.586 20.8852 101.148C20.8015 100.284 20.3838 99.5565 20.2999 98.6898C20.092 96.5418 19.2056 94.5745 19.1776 92.3781C19.1586 90.881 19.3908 88.8015 20.1382 87.6515C20.9952 86.3327 21.78 86.9678 22.7911 87.8503C24.0172 88.9206 24.1072 90.9553 24.7385 92.5208C25.3757 94.101 26.2594 99.2628 26.0915 97.5279L25.7888 94.4011C25.7073 93.5593 25.2929 92.8664 25.2105 92.0149L24.9159 88.9718C24.8327 88.1128 24.5016 86.7879 24.7119 85.9683C24.9098 85.1974 26.0205 84.1049 26.7043 84.1276C27.3694 84.1497 28.2591 85.8301 28.5582 86.4368C28.9683 87.2686 29.1044 88.3124 29.3671 89.2116C30.0164 91.4338 30.2197 93.5343 30.4451 95.8627L30.4489 95.9023L30.6194 97.6634C30.3472 94.8517 30.7795 92.1418 30.506 89.3173C30.3922 88.1418 31.9782 86.4877 31.0042 85.4949C31.8512 84.8052 34.0311 87.4134 34.3765 88.0419C35.2282 89.592 35.0169 92.8636 35.1863 94.6142L35.389 96.7075C35.4789 95.9071 35.6412 95.0083 35.7477 94.559C36.0813 93.1519 36.8336 92.381 37.6106 91.2556C38.343 90.1949 40.2185 92.0194 40.3109 92.9736C40.4963 94.8891 40.6634 97.7752 40.5072 99.7514C40.3627 101.578 39.6637 103.313 38.9246 104.829C38.3156 106.079 37.0859 106.79 36.3306 107.83C35.75 108.629 35.0605 109.962 34.2908 110.377C33.8675 110.604 33.6019 111.268 33.1225 111.362C32.5418 111.476 31.6673 111.924 31.1638 112.256C30.2617 112.851 27.9436 112.978 26.9325 112.394C26.3214 112.041 25.8446 112.189 25.2273 111.921C24.8117 111.74 24.0593 111.382 23.6166 111.426C21.9936 111.585 19.5907 109.713 18.9406 107.967Z" fill="#E1B1A4"/>
<path d="M18.9406 107.967C17.7362 107.128 17.2661 105.603 16.4266 104.32C15.8589 103.451 15.0859 102.019 14.958 100.908C14.8506 99.9754 14.7023 98.9826 14.6903 98.0439C14.6761 96.9286 14.7147 95.6642 15.2005 94.9167C16.682 92.6371 19.8229 98.6775 20.3392 99.9922C20.4966 100.393 20.9276 101.586 20.8852 101.148C20.8015 100.284 20.3838 99.5565 20.2999 98.6898C20.092 96.5418 19.2056 94.5745 19.1776 92.3781C19.1586 90.881 19.3908 88.8015 20.1382 87.6515C20.9952 86.3327 21.78 86.9678 22.7911 87.8503C24.0172 88.9206 24.1072 90.9553 24.7385 92.5208C25.3757 94.101 26.2594 99.2628 26.0915 97.5279C25.9906 96.4857 25.8897 95.4434 25.7888 94.4011C25.7073 93.5593 25.2929 92.8664 25.2105 92.0149C25.1123 91.0005 25.0141 89.9862 24.9159 88.9718C24.8327 88.1128 24.5016 86.7879 24.7119 85.9683C24.9098 85.1974 26.0205 84.1049 26.7043 84.1276C27.3694 84.1497 28.2591 85.8301 28.5582 86.4368C28.9683 87.2686 29.1044 88.3124 29.3671 89.2116C30.02 91.4463 30.222 93.558 30.4489 95.9023C30.5039 96.47 30.7974 99.5023 30.6194 97.6634C30.3472 94.8517 30.7795 92.1418 30.506 89.3173C30.3922 88.1418 31.9782 86.4877 31.0042 85.4949C31.8512 84.8052 34.0311 87.4134 34.3765 88.0419C35.2282 89.592 35.0169 92.8636 35.1863 94.6142C35.2629 95.4049 35.3394 96.1956 35.416 96.9863C35.4469 97.306 35.3654 98.2574 35.3344 97.9377C35.2602 97.1705 35.5762 95.2822 35.7477 94.559C36.0813 93.1519 36.8336 92.381 37.6106 91.2556C38.343 90.1949 40.2185 92.0194 40.3109 92.9736C40.4963 94.8891 40.6634 97.7752 40.5072 99.7514C40.3627 101.578 39.6637 103.313 38.9246 104.829C38.3156 106.079 37.0859 106.79 36.3306 107.83C35.75 108.629 35.0605 109.962 34.2908 110.377C33.8675 110.604 33.6019 111.268 33.1225 111.362C32.5418 111.476 31.6673 111.924 31.1638 112.256C30.2617 112.851 27.9436 112.978 26.9325 112.394C26.3214 112.041 25.8446 112.189 25.2273 111.921C24.8117 111.74 24.0593 111.382 23.6166 111.426C21.9936 111.585 19.5907 109.713 18.9406 107.967Z" stroke="black" stroke-width="3" stroke-linecap="round"/>
<path d="M33.8267 109.18C30.918 111.377 24.9162 112.23 21.1255 112.207C21.5599 113.564 22.3604 114.574 22.3519 116.005C22.3457 117.036 22.6361 116.938 23.8233 116.945L26.2851 116.96C28.407 116.973 30.3376 115.689 32.4347 115.501C34.433 115.323 36.4191 114.478 38.4729 114.398C41.0117 114.299 40.05 111.819 39.6169 110.638C39.3091 109.799 38.9178 107.512 37.5144 107.44C36.5687 107.391 34.5849 108.607 33.8267 109.18Z" fill="#3563A8" stroke="#040404" stroke-width="3" stroke-linecap="round"/>
<defs>
<linearGradient id="paint0_linear_141_200" x1="129" y1="0" x2="129" y2="361" gradientUnits="userSpaceOnUse">
<stop offset="0.0001" stop-color="#DEDEDE"/>
</linearGradient>
<clipPath id="clip0_141_200">
<rect width="258" height="361" fill="white"/>
</clipPath>
</defs>
</svg>
